<?xml version="1.0" standalone="no"?>
<!DOCTYPE svg PUBLIC "-//W3C//DTD SVG 20010904//EN"
 "http://www.w3.org/TR/2001/REC-SVG-20010904/DTD/svg10.dtd">
<svg version="1.0" xmlns="http://www.w3.org/2000/svg"
 width="465.000000pt" height="465.000000pt" viewBox="0 0 465.000000 465.000000"
 preserveAspectRatio="xMidYMid meet">
<metadata>
Created by potrace 1.14, written by Peter Selinger 2001-2017
</metadata>
<g transform="translate(0.000000,465.000000) scale(0.100000,-0.100000)"
fill="#000000" stroke="none">
<path d="M2400 4570 c-6 -11 -7 -20 -3 -19 4 1 10 0 13 -1 3 -2 19 -4 35 -5
74 -7 87 -11 96 -27 5 -10 16 -18 24 -18 8 0 15 -7 15 -16 0 -9 -6 -14 -12
-11 -46 19 -48 19 -48 3 0 -14 -4 -15 -21 -5 -12 6 -30 9 -40 6 -10 -3 -17 -1
-14 4 3 5 1 18 -5 29 -8 15 -16 18 -28 12 -25 -12 -83 -6 -117 12 -40 21 -81
20 -94 -1 -6 -10 -11 -14 -11 -9 0 5 -7 3 -15 -4 -20 -17 -19 -54 3 -71 15
-12 16 -12 7 1 -5 9 -3 8 7 -2 20 -23 26 -23 24 0 -1 13 7 17 31 17 17 1 29
-3 26 -8 -3 -5 4 -6 16 -2 12 4 21 2 21 -4 0 -6 7 -11 15 -11 9 0 20 -12 26
-27 8 -21 12 -24 22 -14 9 10 4 19 -26 46 -21 19 -47 37 -58 40 -10 4 -19 13
-19 21 0 20 14 18 35 -6 10 -11 20 -18 23 -15 7 7 65 -27 80 -48 11 -14 17
-15 28 -6 10 8 14 8 14 0 0 -12 27 -10 50 3 8 5 12 5 7 1 -9 -10 21 -45 40
-45 7 0 18 -10 24 -23 8 -17 18 -23 39 -21 29 2 36 -13 15 -28 -6 -5 -6 -8 2
-8 6 0 15 5 18 10 4 6 11 8 16 4 5 -3 8 0 7 7 -3 14 -51 50 -82 62 -15 6 -16
10 -6 23 9 10 15 11 20 4 4 -6 13 -10 21 -8 9 2 14 -5 13 -20 -1 -12 1 -20 4
-17 3 2 11 0 17 -5 9 -8 14 -6 19 5 3 9 0 15 -10 15 -12 0 -15 7 -12 25 4 17
1 25 -8 25 -24 0 -29 1 -41 12 -24 19 -13 31 12 14 14 -9 25 -14 25 -10 0 11
-37 53 -42 48 -3 -2 -11 3 -19 13 -12 15 -12 16 1 8 13 -7 13 -6 2 7 -10 13
-48 22 -119 30 -7 1 -14 7 -17 15 -8 20 -34 16 -46 -7z m-150 -54 c-7 -7 -14
-6 -21 1 -9 9 -7 12 9 10 14 -1 18 -5 12 -11z m180 -67 c0 -5 -5 -9 -12 -9 -6
0 -8 3 -5 7 4 3 1 13 -6 22 -11 14 -10 14 6 2 9 -7 17 -17 17 -22z m127 -19
c1 -11 -3 -20 -8 -20 -6 0 -7 5 -4 10 3 6 -2 10 -12 11 -16 0 -16 1 2 9 11 5
20 9 20 9 1 1 1 -8 2 -19z"/>
<path d="M2211 4401 c-12 -8 -13 -14 -3 -35 13 -28 32 -35 32 -11 0 8 -8 15
-17 15 -15 0 -13 4 7 20 26 20 10 29 -19 11z"/>
<path d="M2408 4398 c14 -14 16 -42 3 -34 -5 3 -11 -1 -15 -9 -3 -8 -1 -15 4
-15 6 0 12 0 15 0 3 0 5 3 6 8 0 4 8 15 16 25 18 20 15 26 -17 32 -18 3 -21 2
-12 -7z"/>
<path d="M2459 4383 c-1 -5 -1 -11 0 -15 0 -5 -3 -8 -8 -8 -8 0 -6 -22 5 -59
4 -12 7 -12 17 1 6 9 25 19 42 23 16 3 27 3 22 -1 -4 -4 9 -25 30 -46 20 -21
34 -38 30 -38 -4 0 1 -8 11 -18 9 -11 20 -17 24 -15 10 5 0 47 -13 52 -8 2 -8
6 1 11 7 4 9 13 5 19 -5 9 -10 9 -21 0 -9 -7 -14 -8 -13 -3 4 23 -3 34 -20 34
-18 0 -35 15 -36 32 0 3 -4 10 -9 15 -5 5 -6 3 -2 -4 11 -20 -9 -15 -29 7 -19
20 -34 26 -36 13z"/>
<path d="M2497 4283 c-4 -3 -7 -11 -7 -17 0 -6 5 -5 12 2 6 6 9 14 7 17 -3 3
-9 2 -12 -2z"/>
<path d="M2470 4246 c0 -8 4 -17 9 -20 5 -4 7 3 4 14 -6 23 -13 26 -13 6z"/>
<path d="M2552 4231 c-6 -19 -38 -51 -44 -45 -3 2 -12 -4 -21 -14 -15 -17 -15
-18 3 -19 11 -1 20 2 20 6 0 4 7 8 14 8 8 0 15 -3 14 -6 -3 -29 3 -33 22 -16
12 11 20 13 20 6 0 -9 3 -9 13 0 15 15 20 49 6 49 -5 0 -9 7 -9 16 0 9 -5 12
-12 8 -10 -6 -10 -5 -1 7 10 13 10 16 -3 16 -9 0 -18 -7 -22 -16z"/>
<path d="M2170 4186 c0 -8 8 -16 18 -18 24 -6 53 3 46 13 -3 5 -9 7 -14 4 -5
-3 -19 -1 -30 5 -16 8 -20 8 -20 -4z"/>
<path d="M2435 4160 c-3 -5 1 -10 10 -10 9 0 13 5 10 10 -3 6 -8 10 -10 10 -2
0 -7 -4 -10 -10z"/>
<path d="M2601 4138 c-1 -9 4 -20 9 -23 6 -4 7 -11 4 -17 -4 -6 -2 -8 4 -4 5
3 13 0 15 -6 4 -9 6 -9 6 -1 1 6 -5 18 -12 25 -8 7 -16 20 -20 28 -4 12 -6 12
-6 -2z"/>
<path d="M2514 4058 c-33 -35 -60 -70 -60 -78 1 -17 36 -27 36 -11 0 6 5 11
11 11 5 0 8 -4 5 -8 -3 -5 1 -9 8 -9 10 0 12 11 10 38 -3 25 1 43 12 54 23 23
29 11 9 -18 -11 -17 -13 -27 -6 -32 11 -6 12 -5 15 17 2 18 26 22 26 4 0 -8
-9 -20 -20 -26 -11 -6 -18 -15 -16 -19 3 -4 -8 -21 -24 -36 -27 -26 -33 -54
-8 -39 7 4 8 2 4 -4 -4 -6 -13 -9 -21 -5 -8 3 -15 0 -15 -7 0 -7 -8 -10 -20
-7 -11 3 -20 1 -20 -4 0 -5 3 -9 8 -9 4 0 13 -13 20 -29 11 -24 11 -33 0 -50
-7 -12 -18 -19 -25 -17 -7 3 -10 -1 -6 -9 3 -8 -2 -18 -11 -21 -9 -3 -13 -10
-10 -15 3 -5 2 -9 -3 -9 -6 0 -34 -36 -59 -78 -5 -9 -44 25 -44 37 0 11 3 11
13 -3 12 -16 14 -16 31 3 10 11 15 24 12 29 -3 5 1 15 9 22 8 7 15 9 15 5 0
-5 14 11 30 33 17 23 35 42 40 42 18 0 11 18 -9 25 -12 4 -18 12 -14 21 3 7 0
14 -5 14 -6 0 -9 11 -6 25 2 14 1 25 -2 25 -9 0 -44 -41 -44 -52 0 -4 -6 -7
-12 -5 -7 1 -12 -3 -11 -9 1 -6 -5 -11 -13 -11 -7 0 -14 4 -14 9 0 4 -7 8 -15
8 -14 0 -20 -12 -16 -33 1 -5 -3 -6 -8 -3 -10 7 -5 39 12 73 15 32 5 37 -26
13 -14 -11 -28 -20 -31 -20 -10 0 -46 -34 -46 -43 0 -5 -11 -23 -25 -41 -26
-34 -33 -70 -15 -81 16 -10 2 -24 -19 -18 -10 3 -22 0 -25 -6 -4 -7 -1 -8 8
-5 9 3 16 1 16 -6 0 -6 4 -8 10 -5 5 3 7 0 4 -9 -3 -8 -12 -12 -20 -9 -10 3
-14 -2 -14 -19 0 -13 -5 -29 -11 -35 -8 -8 -8 -13 0 -17 19 -12 12 -29 -9 -23
-24 6 -26 -11 -5 -39 8 -10 15 -23 15 -28 0 -6 -7 -1 -15 10 -8 10 -15 15 -15
9 -1 -5 -5 -1 -10 10 -8 18 -9 17 -6 -5 6 -37 17 -70 25 -70 4 0 7 -10 8 -21
2 -21 2 -21 -15 -3 -9 11 -26 32 -36 48 l-19 30 -18 -50 c-10 -27 -46 -84 -78
-127 -38 -50 -57 -85 -54 -95 4 -10 2 -13 -5 -8 -18 11 -14 -5 6 -27 12 -15
13 -18 2 -12 -17 11 -40 15 -40 8 0 -2 5 -14 12 -26 15 -28 19 -49 7 -41 -5 3
-7 10 -4 15 4 5 -1 9 -9 9 -9 0 -16 5 -16 12 0 6 -3 8 -6 5 -4 -4 -1 -13 6
-22 11 -13 10 -14 -4 -9 -9 3 -16 1 -16 -5 0 -6 6 -11 13 -11 22 0 95 -83 97
-110 4 -44 0 -61 -10 -55 -5 3 -10 1 -10 -4 0 -15 16 -14 33 3 11 11 17 12 26
3 8 -8 11 -5 11 11 0 12 -4 22 -9 22 -5 0 -8 8 -6 18 1 9 -2 22 -7 29 -6 7 -5
14 3 19 7 4 9 3 5 -4 -3 -6 -2 -13 4 -17 6 -4 8 -10 5 -15 -3 -5 -1 -11 4 -14
13 -8 44 31 35 45 -5 8 -3 10 6 4 8 -5 19 1 30 16 16 20 20 21 34 10 14 -12
16 -11 14 10 -2 19 2 24 19 23 18 0 20 3 12 17 -7 14 -4 19 13 25 21 6 49 33
68 65 6 11 5 16 -6 16 -7 0 -14 -7 -14 -15 0 -9 -3 -12 -7 -9 -3 4 -14 0 -24
-9 -13 -12 -17 -12 -15 -2 3 24 17 38 29 31 8 -4 7 -1 -1 9 -8 10 -9 19 -3 22
5 4 12 2 16 -4 3 -5 14 -10 23 -9 16 0 16 1 0 7 -15 6 -14 9 4 32 14 16 22 21
25 13 3 -7 12 -13 21 -13 10 0 29 -13 45 -29 27 -29 35 -55 18 -65 -7 -5 -8
-60 -1 -76 1 -3 2 -9 1 -13 -1 -5 3 -6 8 -3 5 4 12 -4 16 -16 3 -13 11 -33 17
-46 9 -17 9 -25 0 -34 -7 -7 -12 -20 -12 -30 0 -10 -5 -18 -12 -18 -6 0 -8 -3
-5 -7 4 -3 2 -12 -4 -20 -9 -10 -8 -13 2 -14 67 -5 86 -5 96 3 7 5 14 5 18 -2
5 -8 11 -8 21 1 8 6 14 8 14 3 0 -5 14 -10 31 -10 17 -1 35 -7 40 -15 8 -12
10 -11 8 1 -3 29 1 41 11 35 6 -4 8 -11 5 -16 -4 -5 -2 -9 3 -9 15 0 23 28 10
32 -7 3 -8 10 -4 17 6 9 13 8 28 -5 13 -13 21 -15 26 -7 4 6 23 14 43 18 29 5
39 3 50 -12 8 -10 28 -29 44 -43 27 -23 30 -31 30 -82 -1 -45 -6 -62 -23 -81
-12 -13 -20 -26 -16 -29 3 -3 -8 -5 -25 -4 -20 1 -31 -3 -31 -11 0 -7 -4 -13
-9 -13 -13 0 -21 27 -15 45 4 8 3 15 0 15 -4 0 -11 -12 -16 -26 -14 -35 -34
-20 -26 19 6 30 6 30 -14 12 -16 -15 -22 -16 -35 -5 -9 7 -14 19 -11 26 6 17
-8 26 -28 18 -12 -5 -13 -11 -6 -24 7 -13 7 -21 0 -25 -6 -4 -9 -3 -8 2 5 16
-40 63 -63 66 -24 4 -30 18 -10 25 6 2 11 -2 11 -8 0 -7 8 -10 19 -7 10 2 26
0 36 -6 13 -7 16 -6 11 2 -5 7 1 11 13 11 28 0 37 -3 33 -13 -1 -5 2 -6 8 -2
14 9 5 21 -30 39 -19 9 -28 10 -23 3 5 -9 3 -9 -8 -1 -8 6 -36 11 -63 12 -28
1 -53 7 -58 14 -7 10 -11 10 -21 -2 -6 -9 -20 -14 -30 -12 -10 2 -24 -2 -32
-8 -8 -7 -21 -10 -29 -7 -19 8 -28 -3 -16 -18 11 -14 3 -45 -11 -45 -5 0 -9
-7 -9 -15 0 -8 -5 -15 -11 -15 -5 0 -8 -4 -4 -9 3 -5 1 -12 -5 -16 -6 -4 -8
-10 -5 -15 3 -5 1 -11 -5 -15 -6 -4 -8 -10 -5 -15 3 -5 1 -11 -5 -15 -17 -11
-11 -28 8 -21 12 4 11 1 -5 -13 -16 -13 -23 -30 -23 -55 0 -28 -4 -36 -17 -36
-16 -1 -16 -2 2 -16 19 -15 19 -15 -10 -8 -16 3 -32 7 -35 6 -21 0 -30 -3 -30
-11 0 -5 6 -9 13 -8 6 0 21 -1 32 -2 l20 -2 -20 -9 c-14 -7 -8 -8 20 -3 22 3
45 8 50 12 6 3 14 6 19 6 5 0 11 6 14 13 3 9 -3 11 -24 6 -19 -5 -25 -4 -20 5
4 6 12 9 17 6 5 -4 12 0 15 9 3 8 12 12 20 9 8 -3 11 -9 8 -14 -3 -5 3 -12 12
-16 10 -4 19 -2 22 5 2 7 13 12 23 12 14 0 18 4 12 13 -4 6 -8 15 -8 20 0 14
-19 7 -21 -9 -3 -21 -12 -29 -21 -20 -4 4 -1 12 7 17 12 8 12 9 -4 7 -10 -2
-21 4 -24 12 -3 8 -1 12 3 8 4 -4 15 -4 24 1 31 16 71 22 71 11 0 -6 -4 -8
-10 -5 -5 3 -10 1 -10 -4 0 -13 17 -15 24 -3 2 4 19 9 36 10 18 1 45 9 60 17
16 8 39 17 52 19 13 3 23 5 23 6 0 1 8 3 17 5 10 2 25 10 34 19 20 21 24 20
24 -4 0 -14 -9 -21 -37 -26 -21 -4 -42 -10 -48 -14 -5 -4 -25 -11 -43 -15 -42
-9 -84 -30 -76 -38 4 -3 29 3 58 13 28 11 59 20 69 20 9 0 17 4 17 10 0 5 7 7
15 3 9 -3 24 2 35 12 10 9 24 14 29 10 6 -3 11 -1 11 6 0 7 3 9 6 6 4 -3 15
-2 25 4 15 7 19 6 19 -5 0 -8 -14 -17 -32 -21 -18 -4 -38 -11 -44 -16 -6 -5
-19 -10 -30 -12 -21 -4 -34 -8 -84 -27 -19 -7 -45 -13 -57 -14 -13 0 -23 -4
-23 -8 0 -5 -7 -8 -15 -8 -8 0 -23 -4 -33 -9 -36 -19 -112 -42 -121 -37 -5 3
-14 -1 -21 -9 -7 -8 -16 -12 -21 -10 -4 3 -16 1 -26 -4 -15 -8 -39 -18 -63
-26 -3 -1 -18 -5 -35 -10 -16 -4 -36 -12 -42 -18 -7 -5 -13 -6 -13 -2 0 4 -6
3 -12 -2 -21 -16 -47 -23 -53 -13 -6 10 74 52 86 45 4 -3 10 -1 14 5 3 5 17
10 31 10 14 0 22 4 19 10 -8 12 -45 13 -45 1 0 -9 -45 -7 -72 4 -11 4 -18 3
-18 -3 0 -6 10 -13 23 -15 l22 -4 -22 -2 c-13 0 -23 -5 -23 -10 0 -5 -9 -11
-20 -14 -11 -3 -19 -11 -18 -17 5 -20 -29 -37 -44 -22 -9 9 -6 12 16 12 15 0
25 4 21 10 -4 6 -16 5 -33 -1 -15 -6 -29 -11 -32 -12 -6 -3 -1 -20 9 -27 10
-7 12 -100 2 -100 -5 0 -11 -17 -15 -37 -27 -168 -35 -182 -79 -151 -16 11
-24 24 -20 31 4 6 7 28 8 47 1 19 5 42 10 50 5 8 10 35 10 60 0 25 4 50 8 56
4 7 0 17 -7 23 -10 8 -16 9 -21 1 -3 -6 -12 -7 -18 -3 -7 4 -6 0 2 -10 7 -9
11 -23 8 -32 -4 -8 -2 -17 3 -20 6 -3 6 -15 0 -30 -5 -13 -8 -40 -6 -59 2 -20
0 -36 -5 -36 -9 0 -13 14 -10 36 1 7 -5 14 -14 18 -22 8 -19 36 4 31 13 -2 18
2 17 13 -2 9 -5 16 -7 14 -2 -1 -13 -5 -25 -8 -19 -5 -20 -8 -8 -52 9 -35 9
-51 0 -61 -8 -11 -8 -13 1 -7 7 4 21 2 30 -3 17 -10 17 -10 -2 -11 -14 0 -16
-3 -7 -12 7 -7 8 -16 3 -22 -14 -18 6 -56 31 -58 37 -2 42 -3 56 -12 9 -6 10
-11 2 -21 -8 -10 -5 -14 12 -18 34 -9 43 -8 43 3 0 6 -3 9 -6 8 -9 -4 -39 23
-39 36 0 7 12 12 28 11 15 0 25 -4 23 -10 -1 -5 -7 -9 -12 -7 -17 4 -9 -7 21
-28 26 -18 33 -20 46 -9 9 7 25 18 36 24 12 5 20 13 19 18 0 4 -1 16 -1 28 0
12 -4 17 -11 14 -6 -4 -8 -14 -5 -22 4 -10 2 -13 -8 -10 -7 3 -24 -2 -37 -11
-22 -15 -23 -15 -10 1 12 15 11 17 -8 17 -11 0 -21 5 -21 11 0 5 4 8 9 4 5 -3
12 -1 16 5 4 6 10 8 15 5 5 -3 11 -1 15 5 4 6 10 8 15 5 5 -3 11 -1 15 5 11
18 25 10 42 -24 15 -32 18 -34 36 -21 10 7 25 11 32 9 7 -3 16 -1 20 5 11 19
38 13 31 -6 -5 -16 -5 -16 8 0 15 20 24 21 43 5 8 -7 19 -5 35 6 12 9 18 16
13 16 -5 0 2 8 15 17 14 10 29 17 34 15 5 -2 17 5 28 15 10 9 31 19 46 21 15
2 29 8 33 13 3 6 14 9 24 7 9 -2 23 6 30 17 12 18 11 22 -10 38 -15 10 -26 13
-30 7 -3 -5 1 -10 10 -10 9 0 13 -4 10 -10 -4 -6 -13 -5 -24 2 -11 7 -26 8
-37 3 -11 -5 -25 -9 -31 -10 -17 0 -17 -20 0 -21 6 0 19 6 29 14 9 8 18 9 22
4 5 -8 -16 -20 -46 -26 -3 0 -10 -4 -14 -8 -13 -14 -24 -9 -17 8 5 14 1 15
-28 9 -19 -4 -38 -11 -44 -16 -5 -5 -19 -9 -32 -9 -13 0 -23 -4 -23 -10 0 -5
-7 -10 -15 -10 -21 0 -19 16 3 25 9 3 17 6 17 6 0 0 38 13 85 30 47 16 90 31
95 32 6 2 25 10 43 19 18 9 40 14 48 11 7 -3 14 -1 14 4 0 5 21 15 48 23 48
14 123 43 154 60 20 11 25 5 24 -29 -1 -27 -28 -36 -56 -19 -14 9 -26 8 -50
-4 -28 -14 -29 -16 -11 -21 14 -3 21 0 21 9 0 22 15 16 30 -11 8 -16 17 -22
24 -16 6 5 19 7 29 6 9 -2 17 0 17 5 0 10 39 23 63 20 9 -1 17 3 17 9 0 6 13
9 29 8 16 -1 29 -6 28 -11 -1 -5 12 -13 29 -17 18 -5 34 -15 37 -23 7 -18 -3
-56 -15 -56 -5 0 -4 -8 1 -19 6 -10 8 -41 5 -67 -3 -27 -7 -78 -9 -114 -2 -36
-6 -82 -9 -102 -3 -20 -1 -40 4 -43 6 -3 11 4 11 17 1 13 3 32 5 43 2 11 5 47
8 80 3 33 9 83 12 110 6 44 9 77 13 149 1 15 4 16 16 6 12 -10 13 -16 4 -26
-7 -9 -11 -45 -10 -89 1 -42 -1 -81 -5 -87 -7 -11 -14 -77 -16 -150 -1 -21 -6
-38 -11 -38 -7 0 -6 -5 1 -12 17 -17 31 0 34 40 1 17 5 32 8 32 17 0 18 -16 5
-47 -8 -20 -15 -47 -15 -60 0 -16 -7 -27 -19 -30 -19 -5 -22 -18 -8 -39 3 -6
-2 -19 -13 -29 -20 -18 -20 -18 3 -40 22 -22 56 -39 69 -37 11 3 21 -45 14
-63 -3 -8 -15 -15 -26 -15 -13 0 -20 -7 -20 -20 0 -26 8 -25 38 3 13 12 23 18
22 12 -6 -31 2 -43 33 -48 34 -5 71 8 62 23 -3 4 1 10 7 13 10 3 10 7 1 19
-15 17 -15 298 0 298 5 0 8 15 6 33 -6 93 9 150 28 101 3 -9 17 -27 29 -40 22
-21 28 -22 25 -1 -2 10 27 9 34 -2 3 -6 -2 -14 -11 -19 -15 -8 -15 -10 0 -15
10 -4 15 -3 11 3 -3 6 -4 10 -1 10 3 0 13 -17 23 -37 9 -21 21 -41 26 -44 10
-8 2 -65 -9 -62 -5 1 -10 -13 -10 -30 -7 -156 -14 -171 -87 -198 -20 -7 -39
-21 -43 -31 -3 -10 -10 -18 -15 -18 -5 0 -9 -4 -9 -10 0 -5 7 -7 15 -4 11 4
13 2 9 -9 -4 -11 -1 -14 13 -11 10 2 25 0 33 -6 13 -9 13 -11 0 -20 -8 -5 -10
-10 -4 -10 6 0 14 3 17 7 4 4 31 7 60 8 28 0 57 4 63 8 6 3 21 -2 33 -12 24
-21 63 -17 54 5 -5 13 8 19 31 15 5 -1 3 5 -4 14 -11 13 -11 15 -1 13 7 -2 15
7 17 20 2 12 -1 22 -7 22 -5 0 -8 4 -5 9 8 13 -4 42 -15 35 -5 -3 -6 -10 -3
-16 4 -7 2 -8 -5 -4 -18 11 5 36 29 31 13 -3 17 1 13 11 -3 8 0 20 6 28 9 11
7 15 -9 19 -15 4 -19 2 -12 -6 7 -8 6 -16 -3 -24 -10 -9 -14 -7 -18 9 -5 18
-9 19 -21 9 -9 -7 -15 -16 -14 -19 4 -31 -4 -62 -13 -56 -7 4 -19 -3 -28 -15
-9 -12 -32 -24 -51 -27 -18 -3 -43 -10 -56 -14 -12 -5 -25 -6 -29 -2 -4 4 -12
7 -18 7 -21 0 -18 23 5 31 24 9 34 10 103 13 30 2 35 4 21 10 -14 5 -16 10 -8
15 19 11 14 26 -8 26 -26 0 -25 12 3 36 22 20 52 20 75 1 7 -6 12 -6 11 -1 -4
21 2 26 16 14 10 -8 15 -9 15 -2 0 16 41 52 52 46 4 -3 8 5 8 17 0 17 3 19 14
10 11 -10 17 -8 25 6 6 10 11 12 11 5 0 -7 -15 -26 -32 -43 -18 -17 -27 -27
-19 -23 11 5 13 2 9 -14 -4 -15 -2 -22 8 -22 8 0 14 -10 14 -26 0 -14 4 -23
10 -19 5 3 7 12 3 21 -3 8 2 21 12 28 11 8 15 18 10 26 -6 9 -4 11 6 5 11 -7
11 -6 -1 9 -12 16 -12 19 3 27 9 6 17 15 17 22 0 6 17 28 37 49 31 32 33 37
15 33 -17 -3 -22 1 -22 18 1 43 -8 72 -19 69 -6 -1 -11 5 -11 13 0 8 -5 15
-11 15 -7 0 -17 7 -24 16 -10 15 -32 19 -102 23 -20 1 -21 4 -12 28 7 18 6 29
-1 35 -5 4 -8 6 -6 2 2 -3 0 -19 -4 -34 -7 -23 -4 -35 13 -56 l21 -27 -21 -16
c-11 -9 -22 -32 -25 -50 l-5 -34 29 34 c16 19 26 27 22 19 -4 -8 -9 -24 -10
-36 -2 -20 0 -20 27 8 31 33 39 27 13 -10 -8 -12 -12 -22 -9 -22 7 0 -81 -86
-107 -105 -27 -19 -41 -17 -35 6 4 16 3 19 -6 10 -6 -6 -15 -11 -20 -11 -5 0
2 9 17 21 14 11 24 25 21 30 -4 5 1 9 9 9 9 0 16 7 16 16 0 14 -3 14 -15 4
-12 -10 -19 -10 -27 -2 -13 13 6 42 28 42 17 0 17 10 0 32 -7 10 -17 14 -21
10 -4 -4 -5 3 -2 16 5 20 3 22 -11 10 -10 -8 -13 -9 -9 -1 8 13 -79 107 -92
98 -5 -3 -7 4 -4 15 3 12 -5 28 -23 46 -29 27 -29 27 -4 21 23 -6 23 -5 -5 18
-58 46 -67 56 -60 73 5 13 2 13 -15 -3 -12 -11 -21 -13 -21 -7 -1 7 -2 16 -3
22 0 5 -12 17 -26 27 -43 29 -51 46 -33 66 9 9 19 15 21 12 3 -3 -3 -12 -14
-20 -18 -14 -17 -15 7 -6 19 7 30 6 41 -5 11 -11 21 -12 41 -5 15 6 27 15 27
21 0 16 -27 12 -34 -5 -3 -8 -10 -15 -16 -15 -6 0 -8 5 -4 12 4 6 3 8 -2 5 -6
-3 -16 4 -23 16 -11 18 -11 20 0 10 18 -18 34 -16 20 1 -8 9 -8 16 -2 20 5 4
13 2 16 -4 5 -8 11 -8 19 -1 7 6 16 9 20 6 3 -3 2 1 -4 7 -16 19 -12 28 11 28
11 0 17 5 14 10 -3 6 -2 10 4 10 5 0 11 -5 13 -10 2 -6 14 -12 28 -12 30 -2
43 -18 29 -34 -8 -9 -5 -11 10 -7 12 3 21 1 21 -6 0 -6 6 -11 14 -11 14 0 39
-54 29 -63 -3 -3 4 -3 15 0 11 2 23 12 26 21 3 10 9 23 12 30 3 6 1 12 -5 12
-6 0 -10 -5 -9 -11 5 -20 -17 -20 -29 0 -10 16 -10 23 1 34 15 15 5 44 -12 33
-15 -9 -43 4 -35 18 14 21 13 38 -1 27 -14 -11 -26 -5 -26 13 0 6 4 5 9 -2 6
-10 17 -2 42 30 19 24 37 44 40 46 4 2 20 14 36 28 24 20 38 24 96 24 38 0 67
-4 67 -10 0 -5 4 -10 9 -10 5 0 22 -5 38 -12 15 -6 32 -10 36 -9 5 1 6 -3 3
-8 -3 -5 1 -14 9 -21 8 -7 15 -9 15 -5 0 3 16 -14 35 -39 19 -26 35 -51 35
-57 0 -5 5 -7 10 -4 6 3 10 -3 10 -14 0 -12 5 -21 10 -21 6 0 9 -3 8 -7 -1 -5
8 -28 20 -52 12 -25 22 -57 22 -72 0 -15 3 -30 8 -32 4 -3 6 -19 6 -36 -2 -47
-3 -51 -15 -51 -6 0 -8 9 -4 21 5 15 4 19 -4 15 -6 -4 -11 -17 -10 -29 4 -40
-1 -55 -17 -61 -13 -5 -14 -2 -9 11 5 10 9 28 10 40 1 13 5 26 8 30 12 12 7
51 -8 66 -11 12 -12 17 -2 20 8 4 7 6 -3 6 -8 1 -20 13 -27 27 -10 22 -10 25
2 20 12 -4 13 -2 2 17 -6 12 -18 30 -26 40 -8 9 -11 17 -7 17 4 0 -2 10 -13
22 -11 11 -18 25 -15 30 3 4 -1 8 -8 8 -7 0 -24 16 -38 34 -14 19 -29 32 -33
29 -5 -3 -14 3 -21 13 -29 39 -216 4 -216 -42 0 -9 -5 -12 -12 -8 -7 4 -8 3
-4 -5 5 -8 16 -5 37 10 17 12 39 19 49 16 10 -3 21 0 23 7 3 7 9 6 22 -4 10
-8 26 -14 35 -12 19 3 143 -125 134 -139 -3 -5 0 -9 5 -9 6 0 11 -6 11 -14 0
-7 7 -19 15 -26 10 -9 12 -17 6 -23 -6 -6 -5 -18 5 -32 8 -13 14 -27 13 -31
-2 -5 3 -22 10 -39 8 -16 17 -39 22 -50 16 -36 1 -93 -34 -132 -19 -22 -19
-22 2 -16 11 3 21 9 21 14 0 5 4 9 9 9 5 0 9 -30 8 -67 -1 -44 -6 -67 -13 -66
-7 1 -11 -13 -10 -35 1 -20 4 -35 8 -32 10 8 69 -60 62 -72 -5 -7 -3 -8 5 -4
7 5 9 15 6 25 -4 9 -9 29 -11 45 -5 37 -12 45 -24 26 -7 -11 -10 -8 -10 13 0
19 4 26 12 21 6 -4 8 -3 5 3 -8 12 27 46 36 36 4 -3 6 5 5 20 -1 14 -5 24 -9
21 -9 -5 -16 49 -15 111 1 38 5 49 15 47 11 -2 12 0 3 11 -10 11 -9 17 3 27
18 15 26 10 26 -16 -1 -11 0 -28 0 -39 5 -145 -1 -368 -11 -379 -6 -8 -13 -27
-15 -43 -2 -15 -4 -28 -5 -28 -1 0 -4 -10 -6 -22 -2 -13 -6 -31 -7 -40 -2 -10
-11 -35 -20 -57 -10 -21 -17 -46 -17 -55 0 -10 -7 -26 -15 -37 -8 -10 -15 -29
-15 -40 0 -12 -7 -27 -15 -34 -9 -7 -13 -15 -10 -18 3 -3 0 -11 -6 -19 -6 -7
-8 -13 -4 -13 4 0 2 -7 -5 -15 -9 -10 -9 -15 -1 -15 6 0 11 5 11 10 0 6 3 9 8
9 18 -3 21 3 13 24 -7 17 -3 29 15 50 12 15 25 27 28 27 6 0 1 -28 -7 -36 -4
-4 -7 -14 -7 -23 0 -9 11 4 23 29 13 25 20 49 15 54 -4 6 -8 19 -8 30 0 20 0
20 15 0 13 -17 14 -17 15 -2 0 9 -5 20 -10 23 -6 4 -8 11 -4 16 3 5 9 7 14 4
5 -3 11 -1 15 5 3 5 -1 10 -9 10 -10 0 -13 6 -9 16 3 8 12 13 19 10 10 -4 12
2 7 26 -4 21 -3 29 5 24 17 -10 24 11 11 35 -6 12 -7 19 -1 15 13 -8 23 19 15
39 -3 9 1 23 9 33 14 17 16 43 5 95 -4 18 -2 27 7 27 7 0 13 7 13 15 0 12 -3
12 -16 3 -12 -9 -11 -7 2 8 9 11 17 26 17 33 0 7 4 10 9 7 4 -3 17 5 28 17 18
19 20 33 16 117 -6 150 -7 163 -22 168 -8 3 -11 0 -7 -7 4 -6 2 -9 -6 -6 -8 3
-15 15 -16 28 -4 38 -8 51 -22 77 -8 14 -13 29 -12 34 2 4 -3 14 -9 22 -7 8
-9 17 -5 21 3 4 12 -2 20 -12 8 -12 15 -14 20 -7 3 6 2 14 -4 17 -6 4 -8 15
-5 26 4 10 2 19 -3 19 -10 0 -45 66 -40 74 2 2 -8 16 -21 30 -14 14 -20 26
-15 26 19 0 -109 109 -153 130 -38 18 -59 21 -117 17 -39 -2 -80 -7 -91 -10
-11 -3 -27 -6 -35 -7 -10 -1 -9 -4 5 -10 17 -7 14 -11 -26 -29 -26 -11 -63
-40 -83 -63 -20 -24 -36 -36 -36 -28 0 21 17 45 32 45 7 0 13 7 13 15 0 7 17
23 37 34 21 11 37 21 35 22 -3 4 -106 -32 -114 -40 -14 -14 -35 -6 -30 13 2
10 1 25 -4 32 -6 10 -9 8 -10 -8 -2 -37 -3 -41 -13 -50 -5 -5 -6 -3 -2 5 4 6
2 12 -3 12 -6 0 -11 8 -11 19 0 31 -26 46 -56 32 -28 -12 -54 -1 -54 24 0 6
-7 12 -15 12 -12 0 -11 -5 5 -22 11 -12 17 -24 14 -28 -8 -7 -35 3 -52 20 -7
7 -20 13 -28 13 -9 0 -12 5 -8 12 4 7 3 8 -5 4 -9 -6 -9 -11 0 -22 10 -12 10
-15 -2 -12 -7 2 -18 12 -24 23 -6 11 -17 20 -25 20 -8 1 -14 7 -12 14 2 9 -4
12 -18 8 -28 -7 -25 -1 9 16 26 13 31 13 45 -1 8 -9 19 -12 23 -8 11 11 -49
57 -65 51 -7 -3 -11 -1 -8 3 3 5 -1 20 -9 35 -15 30 -3 46 21 26 8 -6 17 -9
21 -5 3 3 1 6 -5 6 -7 0 -12 5 -12 11 0 5 4 8 9 4 5 -3 12 3 14 12 4 16 5 16
6 -1 1 -19 2 -19 24 1 24 23 104 35 100 16 -3 -12 43 -27 57 -18 5 3 21 0 36
-8 22 -12 24 -15 10 -20 -10 -4 -15 -3 -11 3 9 15 -4 12 -21 -4 -12 -13 -22
-11 -73 9 -56 21 -59 22 -48 4 6 -10 17 -19 23 -19 6 0 17 -6 23 -14 14 -17
-4 -17 -29 -1 -44 29 -55 31 -77 17 -19 -12 -21 -17 -11 -36 7 -11 11 -24 10
-28 -1 -5 8 -8 21 -9 12 0 31 -3 42 -6 11 -2 46 -6 79 -9 32 -2 69 -10 82 -19
13 -8 24 -12 24 -8 -1 17 -39 53 -55 53 -14 0 -15 3 -5 15 7 8 17 12 23 8 5
-3 7 -1 4 4 -4 6 0 16 8 23 9 7 14 22 13 34 -2 13 2 20 10 19 14 -3 17 43 3
52 -11 6 -9 44 4 64 6 10 4 12 -6 6 -12 -8 -12 -6 0 8 15 19 31 14 31 -11 0
-11 3 -13 10 -6 14 14 2 44 -16 44 -24 0 -15 28 11 34 24 6 36 36 15 36 -5 0
-10 -8 -10 -17 -1 -17 -1 -17 -11 0 -6 11 -12 24 -13 31 -1 6 -14 35 -29 64
-15 28 -24 52 -21 52 4 0 -1 9 -11 20 -17 18 -17 20 -2 14 9 -3 17 -11 17 -17
0 -6 3 -7 7 -4 3 4 12 2 20 -4 9 -9 13 -8 13 0 0 6 -3 11 -8 11 -4 0 -19 10
-33 23 -14 12 -34 27 -45 34 -10 6 -18 17 -16 25 3 10 1 11 -9 1 -21 -21 -29
-15 -27 17 3 38 23 39 42 1 9 -16 27 -32 41 -35 14 -4 25 -11 25 -16 0 -6 8
-10 18 -10 15 1 14 3 -4 18 -12 9 -31 23 -42 31 -12 8 -19 18 -16 23 3 4 -2 8
-10 8 -10 0 -16 9 -16 21 0 12 -11 34 -25 51 l-25 30 -1 -31 c-2 -40 -3 -43
-13 -60 -7 -11 -6 -12 5 -6 12 7 12 6 1 -7 -19 -24 -39 -12 -39 23 0 21 3 26
9 17 6 -8 7 -2 3 17 -4 16 -11 33 -17 36 -6 4 -8 16 -5 28 3 12 0 21 -5 21 -7
0 -7 5 1 13 8 10 7 17 -1 25 -9 9 -9 12 0 12 8 0 11 10 8 25 -3 17 0 25 10 25
20 0 18 7 -10 37 -13 14 -29 22 -35 19 -6 -4 -9 -11 -6 -16 3 -4 -2 -13 -9
-20 -21 -17 -56 4 -49 29 3 13 -2 21 -15 25 -21 7 -39 36 -22 36 19 0 52 -42
47 -60 -3 -11 1 -21 10 -24 24 -9 26 -7 12 12 -7 9 -10 14 -5 10 12 -10 36 17
36 41 0 12 4 21 9 21 5 0 8 8 6 18 -2 9 -4 23 -4 30 -1 7 -6 10 -12 7 -6 -4
-8 -13 -5 -21 3 -7 2 -16 -3 -18 -10 -6 -11 26 -1 39 13 16 9 64 -6 76 -8 6
-11 15 -8 20 3 5 0 9 -6 9 -7 0 -10 6 -7 14 7 16 -11 36 -27 30 -6 -2 -17 5
-25 17 -13 21 -12 22 23 16 l37 -6 -21 29 c-19 27 -30 31 -105 43 -11 2 -66
-38 -65 -47 1 -14 -14 -62 -23 -75 -15 -18 -18 -41 -5 -41 6 0 8 7 5 15 -4 8
-2 17 3 20 6 4 10 1 10 -4 0 -19 18 -12 23 10 3 12 10 18 16 14 6 -3 9 -11 6
-16 -4 -5 -1 -9 4 -9 6 0 11 -7 11 -15 0 -8 -5 -15 -11 -15 -5 0 -8 4 -5 9 3
4 -6 6 -19 3 -14 -2 -26 -9 -26 -16 -1 -6 -2 -18 -3 -26 0 -8 6 -21 14 -28 8
-7 0 -6 -19 4 -32 15 -33 15 -27 -1 3 -9 6 -18 6 -21 0 -2 7 -1 15 2 12 5 15
-2 15 -34 0 -39 -19 -71 -21 -38 -2 24 -4 29 -17 54 -14 23 -12 97 2 120 4 6
4 12 0 12 -4 0 1 9 11 20 10 11 15 20 10 20 -4 0 -1 7 6 16 18 22 20 41 3 55
-11 9 -14 7 -14 -10 0 -18 -3 -20 -19 -12 -10 6 -22 7 -27 3 -5 -4 -2 1 5 11
11 14 16 15 22 5 7 -10 9 -10 10 2 1 8 1 19 -1 25 -1 5 7 2 18 -8 26 -23 35
-22 59 11 l21 28 -41 -2 c-25 -1 -50 -10 -65 -22 -12 -12 -25 -20 -28 -19 -3
1 -14 -13 -26 -31 -12 -20 -26 -31 -34 -28 -16 6 -19 -10 -4 -19 6 -3 10 -12
10 -18 0 -8 -3 -7 -9 2 -5 8 -16 11 -25 8 -13 -5 -16 -1 -14 16 4 28 17 49 27
42 5 -2 26 16 47 40 22 26 44 43 52 40 7 -2 10 0 7 5 -10 17 -27 11 -58 -17
-19 -18 -31 -24 -34 -16 -7 18 -4 28 7 29 6 1 16 2 23 3 7 1 5 6 -6 12 -9 5
-22 7 -29 3 -8 -5 -9 -2 -5 9 3 9 1 19 -5 23 -6 4 -8 3 -5 -3 4 -6 -2 -13 -13
-16 -11 -3 -18 -1 -14 4 3 5 -1 9 -8 9 -9 0 -10 3 -2 8 6 4 8 15 5 25 -5 14
-17 6 -67 -45z m86 -86 c-10 -25 -9 -26 5 -8 13 17 17 18 28 6 7 -7 7 -10 1
-7 -7 4 -17 0 -24 -8 -9 -11 -16 -12 -25 -5 -9 7 -15 7 -19 1 -4 -5 -2 -12 4
-16 12 -7 4 -25 -11 -25 -14 0 2 59 24 87 16 21 27 4 17 -25z m85 -82 c1 -10
-2 -17 -7 -14 -4 3 -8 15 -8 26 0 26 13 15 15 -12z m146 19 c-19 -8 -21 -12
-11 -24 14 -17 2 -20 -20 -5 -13 9 -12 12 4 25 11 8 27 15 35 14 10 0 6 -4 -8
-10z m-119 -31 c-7 -7 -12 -8 -12 -2 0 6 3 14 7 17 3 4 9 5 12 2 2 -3 -1 -11
-7 -17z m-153 -55 c-20 -32 -20 -35 -4 -25 15 8 21 6 30 -10 9 -20 30 -26 30
-10 0 4 4 13 8 19 6 10 11 10 21 1 19 -18 15 -35 -8 -34 -12 1 -20 -4 -18 -11
3 -19 -4 -16 -28 9 -11 12 -20 19 -20 15 0 -4 -11 -2 -24 3 -18 7 -28 5 -40
-9 -9 -10 -16 -21 -16 -25 0 -3 -22 -30 -50 -58 -27 -28 -50 -56 -50 -63 0 -6
-5 -16 -12 -23 -18 -18 -18 -42 -1 -42 12 0 13 3 3 15 -10 12 -8 14 8 10 15
-3 20 1 17 13 -4 25 56 92 88 97 15 3 27 1 27 -4 0 -19 40 -33 56 -20 12 10
12 13 -1 23 -13 10 -12 13 7 25 21 13 22 13 10 -2 -11 -13 -10 -17 7 -26 14
-8 21 -8 24 2 2 6 8 9 12 5 12 -12 -18 -35 -40 -30 -11 3 -17 1 -13 -3 4 -5 3
-14 -3 -21 -7 -8 -7 -14 1 -19 8 -5 6 -13 -6 -26 -10 -11 -12 -19 -6 -19 7 0
12 5 12 11 0 5 4 8 9 4 5 -3 12 -1 16 5 3 5 12 10 18 10 7 0 4 -5 -7 -11 -15
-9 -16 -13 -5 -21 11 -8 10 -9 -3 -4 -22 7 -24 -12 -3 -20 8 -4 15 -10 15 -15
0 -5 -10 -3 -23 6 -13 8 -27 12 -32 8 -4 -5 -5 -3 -1 4 11 20 -16 27 -31 8 -7
-11 -13 -15 -13 -11 0 4 -6 4 -12 -1 -15 -9 -20 -10 -54 -12 -14 0 -23 -5 -20
-10 4 -5 14 -8 24 -6 9 1 25 -2 35 -7 11 -6 17 -5 17 2 0 7 6 5 15 -4 37 -37
-12 -52 -51 -15 -16 15 -24 17 -29 8 -5 -7 -4 -10 3 -5 6 3 13 2 17 -4 14 -22
-19 -8 -45 20 -51 54 -66 42 -114 -95 -20 -56 -24 -72 -25 -97 -1 -11 -6 -15
-15 -12 -21 8 -18 69 5 90 10 9 19 25 19 34 0 9 6 25 14 35 7 10 11 27 8 38
-3 14 -1 18 6 13 8 -5 12 1 12 18 0 14 5 28 10 31 6 4 8 10 5 15 -2 4 4 19 15
33 11 14 20 30 20 36 0 5 18 29 41 53 22 24 57 63 77 87 74 88 77 91 80 75 2
-8 -7 -31 -19 -51z m-42 32 c-8 -18 -28 -20 -24 -2 2 13 19 28 25 22 3 -2 2
-11 -1 -20z m104 -9 c-6 -7 -9 -15 -6 -18 3 -3 -1 -10 -9 -17 -11 -9 -15 -8
-20 4 -3 8 -1 15 4 15 5 0 12 9 15 20 4 11 11 18 16 14 6 -4 6 -10 0 -18z m50
7 c13 -16 12 -17 -3 -4 -17 13 -22 21 -14 21 2 0 10 -8 17 -17z m24 -34 c11
-16 1 -19 -13 -3 -7 8 -8 14 -3 14 5 0 13 -5 16 -11z m-375 -24 c0 -8 -7 -15
-15 -15 -26 0 -18 20 13 29 1 1 2 -6 2 -14z m82 4 c2 -2 1 -3 -1 -2 -8 5 -31
-19 -26 -27 3 -5 1 -11 -3 -14 -7 -4 -9 41 -3 51 2 3 31 -3 33 -8z m162 -50
c-3 -5 -10 -6 -16 -3 -7 5 -9 1 -5 -9 3 -10 2 -17 -4 -17 -6 0 -7 -6 -3 -12 5
-9 2 -9 -9 1 -24 19 -21 40 6 50 25 10 40 5 31 -10z m-268 -14 c1 -9 -3 -12
-9 -9 -8 5 -7 2 1 -7 16 -18 15 -36 -3 -36 -20 0 -26 23 -13 52 12 26 20 26
24 0z m630 -48 c1 -9 -2 -15 -7 -11 -5 3 -7 9 -4 14 3 5 -3 11 -12 14 -15 4
-15 5 1 3 11 -1 20 -10 22 -20z m-96 3 c9 -6 20 -5 30 3 13 10 13 10 3 -4 -7
-9 -11 -18 -8 -21 3 -3 -6 -10 -20 -16 -19 -9 -25 -9 -26 1 0 6 -2 20 -4 30
-4 19 3 21 25 7z m-45 -9 c3 -5 2 -12 -3 -15 -5 -3 -9 1 -9 9 0 17 3 19 12 6z
m-481 -46 c-4 -8 -8 -15 -10 -15 -2 0 -4 7 -4 15 0 8 4 15 10 15 5 0 7 -7 4
-15z m311 -13 c-3 -3 -11 0 -18 7 -9 10 -8 11 6 5 10 -3 15 -9 12 -12z m187
-7 c-2 -9 1 -15 6 -11 5 3 9 -1 9 -9 0 -8 -4 -15 -9 -15 -5 0 -8 -8 -6 -17 2
-10 -3 -17 -9 -15 -7 1 -13 -5 -13 -13 0 -20 -16 -19 -24 1 -8 22 11 54 29 48
18 -7 18 -4 5 31 -8 21 -7 26 2 22 7 -2 12 -12 10 -22z m-572 0 c7 -9 8 -15 2
-15 -5 0 -12 7 -16 15 -3 8 -4 15 -2 15 2 0 9 -7 16 -15z m670 5 c0 -5 -2 -10
-4 -10 -3 0 -8 5 -11 10 -3 6 -1 10 4 10 6 0 11 -4 11 -10z m-237 -25 c4 -8 2
-17 -3 -20 -6 -4 -10 -1 -10 5 0 6 -4 8 -10 5 -6 -3 -7 1 -4 9 8 20 20 20 27
1z m357 -10 c0 -8 -4 -15 -8 -15 -5 0 -9 7 -9 15 0 8 4 15 9 15 4 0 8 -7 8
-15z m-320 -30 c0 -12 -19 -12 -23 0 -4 9 -1 12 9 8 7 -3 14 -7 14 -8z m40 4
c0 -4 -6 -9 -13 -12 -8 -3 -14 0 -14 7 0 7 6 13 14 13 7 0 13 -4 13 -8z m96
-28 c-3 -5 2 -12 12 -16 15 -6 14 -8 -6 -16 -12 -5 -25 -17 -29 -26 -3 -10
-12 -25 -20 -35 -10 -11 -11 -18 -3 -23 5 -3 8 -11 5 -16 -9 -14 -25 -11 -25
6 0 8 -5 15 -11 15 -6 0 3 17 20 37 17 21 31 42 31 48 0 6 5 16 12 23 14 14
22 16 14 3z m59 0 c3 -5 2 -12 -3 -15 -5 -3 -9 1 -9 9 0 17 3 19 12 6z m-493
-14 c3 4 3 3 2 -4 -2 -6 4 -17 12 -24 13 -10 12 -14 -3 -32 -10 -11 -12 -17
-6 -13 7 4 22 2 33 -4 13 -7 20 -7 20 0 0 5 -7 10 -15 10 -18 0 -20 16 -4 26
6 3 15 1 19 -6 5 -8 19 -15 32 -17 12 -2 30 -11 38 -20 8 -9 10 -13 3 -9 -11
6 -27 -10 -28 -26 0 -3 -4 -10 -8 -15 -5 -4 -7 -1 -5 7 2 9 -3 14 -12 12 -12
-3 -13 -1 -2 9 6 7 12 19 12 27 0 10 -3 10 -16 -2 -8 -9 -20 -14 -25 -11 -5 4
-9 -1 -9 -9 0 -9 5 -16 10 -16 14 0 13 -27 -2 -36 -7 -5 -10 -2 -6 7 6 17 -29
53 -37 39 -4 -6 -2 -10 3 -10 6 0 12 -6 15 -14 4 -11 -1 -11 -31 0 -21 6 -37
16 -37 21 0 17 -17 33 -28 26 -9 -5 -9 -3 -1 8 5 8 10 21 10 29 -2 25 35 61
50 49 6 -5 14 -6 16 -2z m178 1 c-24 -10 -24 -10 -5 -18 11 -4 26 -3 35 3 8 6
12 7 8 3 -4 -5 -2 -16 4 -24 15 -17 20 -44 7 -36 -5 3 -7 9 -4 14 3 4 -1 13
-9 19 -11 9 -15 9 -18 -1 -4 -10 -8 -11 -20 -1 -8 7 -17 11 -19 8 -3 -2 -6 6
-7 18 -1 18 4 23 26 24 l27 2 -25 -11z m169 -1 c8 -10 7 -14 -2 -14 -8 0 -14
6 -14 14 0 7 1 13 2 13 2 0 8 -6 14 -13z m-94 -7 c3 -6 -1 -7 -9 -4 -18 7 -21
14 -7 14 6 0 13 -4 16 -10z m275 -14 c0 -3 -4 -8 -10 -11 -5 -3 -10 -1 -10 4
0 6 5 11 10 11 6 0 10 -2 10 -4z m-796 -22 c9 -24 7 -28 -9 -14 -17 14 -20 30
-6 30 5 0 12 -7 15 -16z m-74 -64 c0 -19 -17 -10 -28 15 -17 37 -15 42 8 17
11 -12 20 -26 20 -32z m677 23 c0 -8 -4 -10 -12 -3 -7 5 -16 6 -20 2 -5 -4 -5
-2 -2 4 9 15 34 13 34 -3z m-540 -25 c-3 -8 -6 -5 -6 6 -1 11 2 17 5 13 3 -3
4 -12 1 -19z m643 -4 c0 -8 -4 -12 -10 -9 -5 3 -10 10 -10 16 0 5 5 9 10 9 6
0 10 -7 10 -16z m120 2 c0 -2 -8 -10 -17 -17 -16 -13 -17 -12 -4 4 13 16 21
21 21 13z m-363 -22 c2 -7 -6 -10 -22 -7 -14 3 -25 10 -25 15 0 13 43 6 47 -8z
m-235 -26 c13 -15 21 -19 29 -11 12 12 68 -2 70 -18 1 -5 2 -14 3 -21 0 -6 8
-13 16 -15 13 -4 13 -3 0 6 -12 9 -11 11 8 11 13 0 21 -4 17 -10 -5 -8 22 -8
60 0 20 5 35 0 35 -11 0 -8 -4 -8 -13 -1 -7 6 -18 7 -26 3 -21 -13 16 -27 64
-25 22 1 32 -1 22 -3 -9 -3 -15 -8 -12 -13 3 -4 -2 -13 -10 -20 -8 -7 -15 -19
-15 -26 0 -16 -26 -19 -35 -3 -4 6 -14 8 -22 4 -9 -3 -28 2 -42 12 -14 10 -28
18 -31 18 -15 1 -69 28 -67 34 2 7 -14 28 -55 72 -16 15 -28 31 -28 34 0 11
13 4 32 -17z m-385 -3 c0 -8 -4 -12 -9 -9 -5 3 -6 10 -3 15 9 13 12 11 12 -6z
m847 -6 c-3 -5 -10 -7 -15 -3 -5 3 -7 10 -3 15 3 5 10 7 15 3 5 -3 7 -10 3
-15z m-130 -10 c-9 -11 -19 -17 -22 -14 -3 3 -10 1 -16 -4 -6 -5 -20 -5 -31
-1 -17 6 -16 7 8 14 15 3 27 10 27 14 0 4 12 8 26 8 24 2 25 1 8 -17z m-714
-13 c0 -2 -8 -10 -17 -17 -16 -13 -17 -12 -4 4 13 16 21 21 21 13z m880 -2 c0
-8 -19 -13 -24 -6 -3 5 1 9 9 9 8 0 15 -2 15 -3z m-530 -52 c13 -12 13 -13 0
-10 -20 4 -40 24 -40 40 1 10 4 9 13 -2 7 -8 19 -21 27 -28z m-407 -12 c4 -14
-1 -23 -16 -31 -19 -9 -20 -8 -6 3 17 14 14 42 -3 32 -7 -4 -8 -2 -4 4 11 18
23 14 29 -8z m1113 1 c0 -11 -5 -19 -11 -18 -5 1 -8 -10 -7 -25 2 -16 -1 -28
-6 -28 -13 0 -7 57 8 75 16 19 16 19 16 -4z m-279 -22 c12 -30 11 -31 -6 -15
-10 9 -18 23 -18 31 0 25 12 17 24 -16z m-640 -24 c0 -8 -4 -12 -9 -9 -5 3 -6
10 -3 15 9 13 12 11 12 -6z m569 -27 c-9 -5 -14 -13 -11 -19 3 -5 -1 -6 -9 -3
-12 5 -11 9 5 25 10 10 20 25 20 32 1 6 4 3 6 -7 3 -11 -2 -23 -11 -28z m-197
8 c11 -14 6 -15 -27 -7 -4 1 8 21 12 21 2 0 9 -6 15 -14z m289 -21 c-3 -3 -9
2 -12 12 -6 14 -5 15 5 6 7 -7 10 -15 7 -18z m232 1 c0 -2 -8 -10 -17 -17 -16
-13 -17 -12 -4 4 13 16 21 21 21 13z m-292 -18 c-2 -8 6 -13 19 -12 18 0 20
-2 12 -13 -6 -7 -15 -10 -20 -7 -5 3 -9 -2 -9 -10 0 -10 6 -13 16 -9 12 4 15
2 12 -8 -3 -8 -11 -14 -18 -14 -7 0 -14 -8 -16 -18 -2 -14 1 -15 10 -8 7 6 17
7 21 3 5 -4 6 -2 2 3 -3 6 3 16 13 22 16 11 17 10 7 -18 -10 -24 -9 -32 3 -39
23 -14 33 0 14 21 -9 10 -14 20 -11 20 4 1 10 2 15 3 18 3 32 18 26 28 -5 7
-2 8 5 4 9 -6 9 -12 -3 -25 -17 -19 -10 -37 8 -21 7 5 17 5 26 0 13 -9 13 -10
0 -11 -8 -1 -19 -1 -23 0 -5 1 -6 -2 -3 -7 3 -5 0 -17 -7 -26 -10 -14 -18 -15
-40 -7 -15 6 -27 8 -27 6 0 -3 0 -8 0 -12 0 -5 5 -9 10 -9 6 -1 13 -3 18 -4 4
-1 10 -2 15 -1 4 1 2 -8 -5 -19 -15 -24 -24 -25 -35 -5 -15 26 -83 56 -104 45
-23 -13 -34 3 -14 20 8 7 15 19 15 27 0 7 7 16 15 19 9 4 14 14 13 23 -2 10 3
15 14 15 14 -1 17 4 14 21 -2 13 -2 26 1 29 10 9 13 7 11 -6z m-274 -14 c3 -8
2 -12 -4 -9 -6 3 -10 10 -10 16 0 14 7 11 14 -7z m220 -19 c-4 -8 -11 -12 -16
-9 -6 4 -5 10 3 15 19 12 19 11 13 -6z m310 -15 c-9 -16 -17 -30 -19 -30 -2 0
1 14 6 30 6 17 15 30 19 30 5 0 2 -13 -6 -30z m-390 -8 c2 -4 -9 -7 -25 -8
-16 -1 -29 2 -29 5 0 9 48 12 54 3z m46 -43 c-6 -11 -18 -23 -26 -26 -19 -7
-51 22 -35 31 6 4 14 0 17 -8 8 -20 24 -21 24 -2 0 12 9 20 28 25 1 1 -2 -8
-8 -20z m-239 -6 c13 -16 12 -17 -3 -4 -10 7 -18 15 -18 17 0 8 8 3 21 -13z
m535 -31 c-17 -16 -18 -16 -5 5 7 12 15 20 18 17 3 -2 -3 -12 -13 -22z m-69
-7 c0 -8 -4 -12 -9 -9 -4 3 -8 0 -8 -6 0 -6 -9 -20 -20 -32 l-20 -22 17 42
c16 41 40 57 40 27z m-302 -5 c3 -5 1 -10 -4 -10 -6 0 -11 5 -11 10 0 6 2 10
4 10 3 0 8 -4 11 -10z m346 -24 c-6 -7 -7 -17 -3 -21 4 -5 1 -5 -6 -1 -9 6
-10 11 -3 20 6 7 7 17 3 21 -4 5 -1 5 6 1 9 -6 10 -11 3 -20z m319 14 c0 -5
-4 -10 -10 -10 -5 0 -10 5 -10 10 0 6 5 10 10 10 6 0 10 -4 10 -10z m-845 -20
c-3 -5 -12 -10 -18 -10 -7 0 -6 4 3 10 19 12 23 12 15 0z m452 -55 c0 -8 -4
-12 -9 -9 -4 3 -8 9 -8 15 0 5 4 9 8 9 5 0 9 -7 9 -15z m38 -5 c3 -5 1 -10 -4
-10 -6 0 -11 5 -11 10 0 6 2 10 4 10 3 0 8 -4 11 -10z m69 -29 c14 -15 15 -21
4 -27 -7 -4 -10 -3 -5 1 4 5 0 17 -10 27 -9 10 -14 18 -11 18 3 0 13 -9 22
-19z m216 8 c0 -11 -27 -12 -34 -1 -2 4 4 9 15 9 10 1 19 -2 19 -8z m63 -27
c6 -7 6 -12 1 -10 -5 1 -21 -6 -37 -16 -21 -14 -30 -16 -41 -7 -8 7 -19 10
-26 9 -15 -4 -37 28 -27 38 4 5 22 0 39 -11 l32 -18 20 27 c13 17 22 22 25 14
2 -7 8 -19 14 -26z m-375 0 c-5 -23 -28 -27 -28 -4 0 10 7 19 15 19 9 0 15 -7
13 -15z m82 1 c0 -2 -8 -3 -17 -1 -10 2 -18 -3 -19 -9 -3 -23 -4 -24 -15 -18
-15 10 19 45 37 38 8 -3 14 -7 14 -10z m-9 -56 c-10 -9 -11 -8 -5 6 3 10 9 15
12 12 3 -3 0 -11 -7 -18z m-68 -53 c-5 -14 -1 -16 25 -12 24 3 32 1 32 -10 0
-9 7 -24 17 -34 15 -16 15 -18 0 -18 -9 0 -23 12 -31 28 -12 20 -16 23 -17 10
-1 -10 -2 -24 -3 -30 -1 -7 3 -16 8 -20 14 -9 0 -22 -14 -13 -7 4 -9 22 -7 42
4 30 2 34 -13 30 -18 -5 -21 8 -7 31 12 17 18 15 10 -4z m171 -23 c-7 -7 -34
21 -28 31 3 5 12 1 19 -9 7 -10 12 -20 9 -22z m-724 4 c0 -8 -7 -15 -15 -15
-9 0 -12 6 -9 15 4 8 10 15 15 15 5 0 9 -7 9 -15z m126 -12 c-1 -7 -7 -18 -14
-25 -14 -14 -52 -18 -52 -6 0 4 7 8 16 8 9 0 12 5 8 13 -6 9 -4 9 8 -1 14 -11
16 -11 11 6 -3 12 1 19 10 19 8 0 14 -6 13 -14z m144 -13 c0 -5 -5 -10 -11
-10 -5 0 -7 5 -4 10 3 6 8 10 11 10 2 0 4 -4 4 -10z m105 -30 c-3 -5 -14 -10
-23 -9 -14 0 -13 2 3 9 27 11 27 11 20 0z m105 0 c0 -5 -4 -10 -10 -10 -5 0
-10 5 -10 10 0 6 5 10 10 10 6 0 10 -4 10 -10z m-373 -28 c0 -10 -6 -19 -13
-19 -9 0 -11 13 -5 35 1 1 5 2 10 2 6 0 9 -8 8 -18z m388 -12 c-3 -5 4 -19 15
-30 31 -31 19 -35 -15 -6 -18 16 -26 30 -22 41 4 9 11 13 17 10 6 -4 8 -10 5
-15z m61 -8 c-9 -2 -13 -8 -9 -15 4 -7 -1 -6 -10 2 -13 10 -15 17 -6 27 9 12
15 12 27 2 13 -12 13 -13 -2 -16z m-103 -17 c-7 -21 -13 -19 -13 6 0 11 4 18
10 14 5 -3 7 -12 3 -20z m127 -15 c0 -5 -2 -10 -4 -10 -3 0 -8 5 -11 10 -3 6
-1 10 4 10 6 0 11 -4 11 -10z m287 -36 c-9 -9 -28 6 -21 18 4 6 10 6 17 -1 6
-6 8 -13 4 -17z m-400 -6 c-3 -8 -6 -5 -6 6 -1 11 2 17 5 13 3 -3 4 -12 1 -19z
m135 5 c-10 -4 -10 -8 0 -21 11 -15 11 -15 -3 -5 -9 7 -20 9 -25 5 -5 -4 0 3
10 16 11 12 22 19 25 16 3 -4 0 -9 -7 -11z m248 -17 c0 -2 -7 -7 -16 -10 -8
-3 -12 -2 -9 4 6 10 25 14 25 6z m30 -115 c0 -6 -4 -12 -8 -15 -5 -3 -9 1 -9
9 0 8 4 15 9 15 4 0 8 -4 8 -9z m50 -21 c0 -5 -5 -10 -11 -10 -5 0 -7 5 -4 10
3 6 8 10 11 10 2 0 4 -4 4 -10z m-445 -50 c14 -16 14 -18 -1 -24 -12 -5 -15
-2 -10 10 4 12 1 14 -14 9 -14 -4 -20 -2 -20 8 0 19 27 17 45 -3z m-737 -2 c7
-7 12 -9 12 -5 0 15 36 -28 49 -58 11 -25 10 -31 -5 -42 -21 -16 -31 -16 -39
-3 -4 6 -1 9 5 8 21 -5 35 28 19 46 -8 8 -20 22 -27 31 -9 10 -21 13 -39 9
-24 -6 -25 -5 -12 9 17 20 22 20 37 5z m-57 -28 l24 -19 -24 4 c-13 2 -21 2
-17 -2 3 -3 1 -12 -5 -19 -15 -18 -4 -59 23 -84 12 -11 18 -23 15 -27 -8 -7
-31 15 -60 56 -13 20 -14 28 -4 40 10 12 9 13 -2 7 -9 -6 -8 0 4 17 9 15 14
31 10 37 -10 17 11 11 36 -10z m764 0 c3 -5 1 -10 -4 -10 -6 0 -11 5 -11 10 0
6 2 10 4 10 3 0 8 -4 11 -10z m1102 -16 c-9 -9 -28 6 -21 18 4 6 10 6 17 -1 6
-6 8 -13 4 -17z m-1838 -48 c10 -12 8 -13 -8 -9 -12 3 -18 9 -15 14 7 12 10
11 23 -5z m52 -67 c-12 -12 -25 -18 -28 -15 -4 3 2 13 13 21 29 22 41 18 15
-6z m957 -37 c-6 -15 -15 -37 -20 -49 -6 -11 -8 -26 -4 -31 3 -5 -2 -16 -11
-23 -15 -13 -16 -11 -9 16 13 50 14 58 15 104 1 43 2 44 20 27 16 -15 18 -22
9 -44z m-858 -8 c0 -4 -8 -13 -17 -20 -17 -12 -16 -13 5 -14 12 0 22 5 22 10
0 6 5 10 10 10 23 0 7 -21 -20 -27 -17 -3 -33 -10 -36 -14 -7 -12 -24 -11 -24
1 0 6 3 9 8 8 4 -2 9 1 12 6 3 5 -5 10 -17 11 -33 2 -41 15 -10 15 14 0 29 5
32 10 7 11 35 14 35 4z m76 -50 c-24 -38 -35 -36 -34 9 1 43 4 47 32 34 l23
-11 -21 -32z m837 -96 c-12 -20 -12 -37 -1 -45 7 -3 8 -1 4 5 -4 7 0 12 10 12
16 0 16 -1 1 -18 -10 -10 -14 -22 -10 -25 3 -4 1 -7 -5 -7 -6 0 -16 9 -22 20
-6 11 -8 20 -4 20 3 0 0 8 -7 17 -10 11 -10 14 -1 9 7 -4 12 -1 12 8 0 9 7 16
16 16 10 0 12 -5 7 -12z m-63 -21 c0 -2 -10 -12 -22 -23 l-23 -19 19 23 c18
21 26 27 26 19z m70 -79 c0 -4 -5 -19 -12 -33 -12 -26 -34 -36 -25 -11 3 8 3
17 -1 20 -16 16 -8 34 14 32 13 0 24 -4 24 -8z m-73 -43 c-6 -64 -17 -68 -17
-7 0 29 5 52 10 52 6 0 9 -18 7 -45z m783 -20 c-7 -9 -15 -13 -17 -11 -7 7 7
26 19 26 6 0 6 -6 -2 -15z m-235 -34 c-4 -3 -10 -6 -14 -6 -4 0 -31 -24 -59
-52 -51 -52 -84 -65 -98 -40 -4 6 -4 9 0 5 9 -8 11 -7 88 61 37 32 63 48 73
45 9 -4 13 -9 10 -13z m-548 -26 c0 -8 -4 -15 -9 -15 -4 0 -8 7 -8 15 0 8 4
15 8 15 5 0 9 -7 9 -15z m770 -51 c-3 -3 -12 -4 -19 -1 -8 3 -5 6 6 6 11 1 17
-2 13 -5z m-825 -19 c0 -5 -5 -11 -11 -13 -6 -2 -11 4 -11 13 0 9 5 15 11 13
6 -2 11 -8 11 -13z m913 -24 c3 -5 2 -12 -3 -15 -5 -3 -9 1 -9 9 0 17 3 19 12
6z m-28 -113 c-3 -8 -6 -5 -6 6 -1 11 2 17 5 13 3 -3 4 -12 1 -19z m-417 -37
c0 -9 -27 -22 -57 -27 -24 -4 -13 14 15 24 36 14 42 14 42 3z"/>
<path d="M2526 3606 c4 -11 1 -16 -10 -16 -9 0 -16 -4 -16 -10 0 -13 11 -12
33 4 15 12 16 15 2 26 -13 11 -14 10 -9 -4z"/>
<path d="M2436 3601 c-3 -5 1 -14 9 -21 12 -10 15 -10 15 3 0 19 -16 31 -24
18z"/>
<path d="M2479 3599 c0 -8 -2 -21 -4 -30 -1 -9 3 -16 10 -16 8 0 12 10 11 24
-3 26 -16 43 -17 22z"/>
<path d="M2360 3485 c-14 -17 -4 -55 16 -55 19 0 18 26 -2 34 -8 3 -12 10 -9
16 4 6 11 7 17 4 7 -4 8 -2 4 4 -9 15 -11 15 -26 -3z"/>
<path d="M2407 3333 c-16 -4 -16 -7 5 -28 14 -14 25 -20 29 -13 7 12 0 49 -10
47 -3 -1 -14 -3 -24 -6z"/>
<path d="M2486 3271 c-3 -5 1 -14 9 -21 8 -7 15 -9 15 -5 0 5 8 1 18 -7 9 -9
25 -14 35 -13 10 2 17 -3 17 -11 0 -9 5 -12 10 -9 6 4 8 11 5 16 -4 5 4 13 16
17 20 8 20 9 4 15 -9 4 -23 3 -29 -2 -8 -7 -23 -4 -44 9 -36 22 -48 24 -56 11z"/>
<path d="M2795 3020 c-3 -5 -1 -10 4 -10 6 0 11 5 11 10 0 6 -2 10 -4 10 -3 0
-8 -4 -11 -10z"/>
<path d="M2207 4073 c-4 -3 -7 -13 -7 -21 0 -18 13 -7 16 13 2 17 1 18 -9 8z"/>
<path d="M2240 4045 c-9 -10 -9 -15 -1 -15 6 0 11 5 11 11 0 5 5 7 10 4 6 -3
10 -1 10 4 0 16 -16 13 -30 -4z"/>
<path d="M2320 4040 c0 -5 5 -10 11 -10 5 0 7 5 4 10 -3 6 -8 10 -11 10 -2 0
-4 -4 -4 -10z"/>
<path d="M2355 4040 c3 -5 8 -10 11 -10 2 0 4 5 4 10 0 6 -5 10 -11 10 -5 0
-7 -4 -4 -10z"/>
<path d="M2320 3994 c0 -5 7 -18 15 -28 12 -16 15 -17 15 -4 0 8 -7 21 -15 28
-8 7 -15 9 -15 4z"/>
<path d="M2368 3913 c-26 -31 -31 -43 -14 -37 9 3 16 12 16 19 0 7 6 15 13 18
6 2 9 7 6 11 -3 3 -13 -2 -21 -11z"/>
<path d="M2457 3923 c-4 -3 -7 -13 -7 -21 0 -12 3 -12 15 -2 8 7 15 16 15 21
0 11 -14 12 -23 2z"/>
<path d="M2990 3856 c0 -9 5 -16 10 -16 6 0 10 4 10 9 0 6 -4 13 -10 16 -5 3
-10 -1 -10 -9z"/>
<path d="M3030 3670 c0 -5 5 -10 10 -10 6 0 10 5 10 10 0 6 -4 10 -10 10 -5 0
-10 -4 -10 -10z"/>
<path d="M3074 3602 c-6 -4 -8 -16 -4 -27 6 -17 7 -16 12 8 3 15 5 27 4 27 0
0 -6 -4 -12 -8z"/>
<path d="M3087 3474 c-4 -4 -7 -14 -7 -23 0 -11 3 -12 11 -4 6 6 10 16 7 23
-2 6 -7 8 -11 4z"/>
<path d="M3241 3214 c0 -11 3 -14 6 -6 3 7 2 16 -1 19 -3 4 -6 -2 -5 -13z"/>
<path d="M3196 3181 c-3 -5 1 -11 9 -15 8 -3 15 -1 15 4 0 13 -18 22 -24 11z"/>
<path d="M3230 3170 c-9 -16 -8 -25 0 -36 7 -7 10 -20 7 -28 -3 -7 -1 -18 5
-24 8 -8 16 -5 30 10 22 26 23 47 3 54 -8 4 -15 12 -15 19 0 24 -19 26 -30 5z"/>
<path d="M1840 3095 c0 -8 7 -15 16 -15 9 0 12 -5 8 -12 -5 -7 -3 -8 5 -4 9 6
8 13 -5 27 -21 23 -24 23 -24 4z"/>
<path d="M1881 3055 c-1 -6 5 -17 12 -24 10 -11 10 -13 0 -7 -7 4 -13 2 -13
-3 0 -6 7 -11 15 -11 8 0 15 9 15 21 0 11 -4 18 -9 15 -5 -4 -12 0 -14 6 -3 7
-6 8 -6 3z"/>
<path d="M2025 3029 c-4 -6 -5 -12 -2 -15 2 -3 7 2 10 11 7 17 1 20 -8 4z"/>
<path d="M1740 2991 c0 -6 5 -13 10 -16 6 -3 10 1 10 9 0 9 -4 16 -10 16 -5 0
-10 -4 -10 -9z"/>
<path d="M1811 2961 c-13 -12 -18 -22 -11 -26 5 -3 10 -1 10 4 0 19 22 12 27
-8 5 -18 6 -18 22 -3 16 16 15 17 -4 23 -11 3 -19 11 -17 17 3 16 -1 15 -27
-7z"/>
<path d="M1640 2945 c-31 -33 -22 -39 14 -10 15 12 24 25 19 28 -6 4 -21 -5
-33 -18z"/>
<path d="M1700 2954 c0 -17 22 -14 28 4 2 7 -3 12 -12 12 -9 0 -16 -7 -16 -16z"/>
<path d="M1763 2908 c-2 -16 1 -18 10 -9 7 7 8 14 1 21 -6 6 -10 2 -11 -12z"/>
<path d="M1680 2910 c-8 -5 -12 -12 -9 -15 4 -3 12 1 19 10 14 17 11 19 -10 5z"/>
<path d="M2599 2908 c-6 -21 -5 -39 2 -44 5 -3 9 6 9 20 0 21 -7 36 -11 24z"/>
<path d="M1627 2894 c-4 -4 -7 -14 -7 -23 0 -11 3 -12 11 -4 6 6 10 16 7 23
-2 6 -7 8 -11 4z"/>
<path d="M1785 2880 c4 -6 11 -8 16 -5 14 9 11 15 -7 15 -8 0 -12 -5 -9 -10z"/>
<path d="M1725 2870 c-3 -6 1 -7 9 -4 18 7 21 14 7 14 -6 0 -13 -4 -16 -10z"/>
<path d="M1650 2860 c0 -5 5 -10 11 -10 5 0 7 5 4 10 -3 6 -8 10 -11 10 -2 0
-4 -4 -4 -10z"/>
<path d="M1810 2860 c-8 -5 -12 -12 -9 -15 4 -3 12 1 19 10 14 17 11 19 -10 5z"/>
<path d="M2188 2848 c9 -9 15 -9 24 0 9 9 7 12 -12 12 -19 0 -21 -3 -12 -12z"/>
<path d="M1760 2835 c0 -9 6 -12 15 -9 8 4 15 7 15 9 0 2 -7 5 -15 9 -9 3 -15
0 -15 -9z"/>
<path d="M2120 2840 c0 -6 7 -10 15 -10 8 0 15 2 15 4 0 2 -7 6 -15 10 -8 3
-15 1 -15 -4z"/>
<path d="M2066 2818 c3 -4 9 -8 15 -8 5 0 9 4 9 8 0 5 -7 9 -15 9 -8 0 -12 -4
-9 -9z"/>
<path d="M2696 2813 c-3 -7 -2 -13 3 -13 5 0 14 6 20 13 8 10 7 14 -4 14 -8 0
-16 -6 -19 -14z"/>
<path d="M1993 2813 c4 -3 19 -8 34 -9 21 -2 24 -1 13 6 -17 11 -57 14 -47 3z"/>
<path d="M1920 2796 c0 -2 7 -7 16 -10 8 -3 12 -2 9 4 -6 10 -25 14 -25 6z"/>
<path d="M1680 2780 c0 -5 6 -7 14 -4 7 3 21 -2 30 -11 13 -14 19 -15 31 -5
12 10 15 9 15 -5 0 -10 3 -16 6 -12 10 10 -6 44 -21 44 -8 0 -15 -4 -15 -9 0
-5 -9 -4 -19 2 -25 13 -41 13 -41 0z"/>
<path d="M2740 2780 c0 -5 5 -10 10 -10 6 0 10 5 10 10 0 6 -4 10 -10 10 -5 0
-10 -4 -10 -10z"/>
<path d="M1833 2757 c-16 -19 -23 -46 -14 -51 4 -3 6 -19 3 -36 -3 -19 0 -30
7 -30 7 0 9 4 6 10 -3 5 -2 25 3 44 7 24 6 38 -2 47 -8 9 -8 10 1 5 14 -7 28
10 14 18 -5 3 -13 0 -18 -7z"/>
<path d="M2716 2755 c4 -8 10 -12 15 -9 11 6 2 24 -11 24 -5 0 -7 -7 -4 -15z"/>
<path d="M1770 2710 c0 -5 5 -10 10 -10 6 0 10 5 10 10 0 6 -4 10 -10 10 -5 0
-10 -4 -10 -10z"/>
<path d="M3013 2683 c-7 -3 -13 -10 -13 -15 0 -6 3 -8 6 -5 4 3 16 1 28 -5 20
-11 20 -10 6 8 -8 10 -14 20 -15 20 0 1 -6 -1 -12 -3z"/>
<path d="M1775 2670 c3 -5 8 -10 11 -10 2 0 4 5 4 10 0 6 -5 10 -11 10 -5 0
-7 -4 -4 -10z"/>
<path d="M1840 2609 c0 -5 5 -7 10 -4 6 3 10 8 10 11 0 2 -4 4 -10 4 -5 0 -10
-5 -10 -11z"/>
<path d="M2357 2591 c-16 -6 -17 -9 -5 -18 10 -8 18 -8 31 2 21 15 3 26 -26
16z"/>
<path d="M1778 2563 c7 -3 16 -2 19 1 4 3 -2 6 -13 5 -11 0 -14 -3 -6 -6z"/>
<path d="M2075 2520 c3 -5 11 -10 16 -10 6 0 7 5 4 10 -3 6 -11 10 -16 10 -6
0 -7 -4 -4 -10z"/>
<path d="M1840 2510 c0 -5 5 -10 11 -10 5 0 7 5 4 10 -3 6 -8 10 -11 10 -2 0
-4 -4 -4 -10z"/>
<path d="M1756 2495 c-3 -8 -1 -15 4 -15 6 0 10 7 10 15 0 8 -2 15 -4 15 -2 0
-6 -7 -10 -15z"/>
<path d="M1796 2501 c-3 -5 1 -14 9 -21 12 -10 15 -10 15 3 0 19 -16 31 -24
18z"/>
<path d="M2048 2503 c7 -3 16 -2 19 1 4 3 -2 6 -13 5 -11 0 -14 -3 -6 -6z"/>
<path d="M1910 2481 c-6 -12 -6 -22 -1 -26 6 -3 15 3 21 14 6 12 6 22 1 26 -6
3 -15 -3 -21 -14z"/>
<path d="M1955 2470 c3 -5 8 -10 11 -10 2 0 4 5 4 10 0 6 -5 10 -11 10 -5 0
-7 -4 -4 -10z"/>
<path d="M3325 2400 c3 -5 8 -10 11 -10 2 0 4 5 4 10 0 6 -5 10 -11 10 -5 0
-7 -4 -4 -10z"/>
<path d="M1700 2355 c1 -19 1 -19 11 -2 10 18 11 18 25 0 13 -17 13 -17 14 4
0 18 -5 22 -25 21 -18 -2 -25 -8 -25 -23z"/>
<path d="M3162 2345 c0 -16 2 -22 5 -12 2 9 2 23 0 30 -3 6 -5 -1 -5 -18z"/>
<path d="M1587 2353 c-3 -5 6 -9 19 -9 13 -1 21 2 18 7 -6 11 -31 12 -37 2z"/>
<path d="M1650 2341 c0 -6 4 -12 8 -15 5 -3 9 1 9 9 0 8 -4 15 -9 15 -4 0 -8
-4 -8 -9z"/>
<path d="M2675 2340 c-3 -5 -5 -10 -3 -11 26 -6 35 -4 35 7 0 16 -23 19 -32 4z"/>
<path d="M3200 2314 c0 -8 5 -12 10 -9 6 4 8 11 5 16 -9 14 -15 11 -15 -7z"/>
<path d="M1571 2310 c-9 -5 -10 -10 -2 -14 6 -4 11 -4 11 0 0 3 7 1 15 -6 8
-7 13 -16 10 -20 -3 -5 -1 -11 4 -14 5 -3 11 2 13 12 6 22 -33 54 -51 42z"/>
<path d="M2535 2287 c-11 -7 -29 -18 -40 -26 -17 -12 -18 -13 -1 -7 14 5 17 2
12 -10 -8 -22 3 -38 17 -25 7 5 32 16 57 25 35 12 47 13 60 3 13 -10 13 -10 3
4 -7 9 -10 18 -8 21 3 3 -3 8 -15 11 -11 3 -23 1 -26 -4 -3 -5 -16 -9 -29 -9
-13 0 -27 -5 -30 -10 -4 -6 -11 -7 -17 -4 -14 9 29 28 57 25 17 -2 17 0 5 8
-18 13 -20 13 -45 -2z"/>
<path d="M3140 2266 c0 -3 9 -10 20 -16 11 -6 20 -8 20 -6 0 3 -9 10 -20 16
-11 6 -20 8 -20 6z"/>
<path d="M1560 2239 c0 -11 -4 -18 -8 -15 -5 3 -9 -13 -11 -36 -1 -29 2 -39
11 -36 7 3 14 10 14 16 1 7 2 13 4 15 6 7 4 77 -2 77 -4 0 -8 -9 -8 -21z"/>
<path d="M2830 2235 c-7 -9 -6 -16 7 -26 11 -10 14 -10 9 -1 -5 8 1 15 16 21
13 6 21 10 18 11 -26 8 -41 6 -50 -5z"/>
<path d="M3090 2235 c14 -16 40 -20 40 -6 0 9 -24 21 -42 21 -6 0 -6 -6 2 -15z"/>
<path d="M3330 2245 c0 -5 9 -21 20 -35 l19 -25 -1 33 c-1 22 -4 29 -10 20 -6
-10 -10 -10 -18 2 -5 8 -10 11 -10 5z"/>
<path d="M3600 2236 c0 -9 5 -16 10 -16 6 0 10 4 10 9 0 6 -4 13 -10 16 -5 3
-10 -1 -10 -9z"/>
<path d="M1595 2218 c-13 -60 -13 -78 -1 -78 9 0 13 12 12 38 -1 20 2 43 7 50
6 8 6 12 -2 12 -6 0 -13 -10 -16 -22z"/>
<path d="M2763 2220 c-17 -10 -34 -17 -37 -14 -3 2 -1 -2 4 -8 7 -8 13 -9 18
-3 4 6 16 12 27 13 25 4 40 18 28 25 -5 3 -23 -2 -40 -13z"/>
<path d="M3887 2224 c-3 -4 -3 -12 1 -18 8 -13 9 -18 11 -46 0 -11 6 -20 12
-20 6 0 9 16 7 42 -3 39 -16 57 -31 42z"/>
<path d="M2655 2201 c-3 -5 -1 -12 5 -16 5 -3 10 1 10 9 0 18 -6 21 -15 7z"/>
<path d="M1653 2193 c4 -3 1 -13 -6 -22 -11 -14 -10 -14 6 -2 13 11 17 11 17
1 0 -8 2 -11 5 -8 8 8 -6 38 -18 38 -6 0 -7 -3 -4 -7z"/>
<path d="M3373 2182 c-8 -14 -6 -17 19 -18 32 -1 37 11 10 25 -13 7 -21 5 -29
-7z"/>
<path d="M2483 2175 c0 -8 4 -12 8 -9 4 2 10 -2 12 -8 3 -7 6 -3 6 10 1 12 -5
22 -12 22 -8 0 -14 -7 -14 -15z"/>
<path d="M2520 2172 c0 -4 9 -8 20 -9 11 -1 20 2 20 5 0 4 -9 8 -20 9 -11 1
-20 -2 -20 -5z"/>
<path d="M2625 2170 c-3 -5 -12 -7 -19 -4 -7 3 -16 -2 -20 -11 -3 -9 -2 -13 3
-10 5 3 12 1 16 -5 4 -6 11 -8 16 -4 5 3 7 10 4 15 -4 5 1 9 9 9 9 0 16 5 16
10 0 13 -17 13 -25 0z"/>
<path d="M2715 2170 c3 -5 8 -10 11 -10 2 0 4 5 4 10 0 6 -5 10 -11 10 -5 0
-7 -4 -4 -10z"/>
<path d="M3392 2137 c4 -19 1 -24 -10 -20 -12 5 -12 3 -1 -16 21 -33 35 -25
30 17 -1 6 6 12 15 12 16 0 11 15 -4 15 -4 0 -13 4 -21 9 -11 7 -13 3 -9 -17z"/>
<path d="M1640 2136 c0 -9 5 -16 10 -16 6 0 10 4 10 9 0 6 -4 13 -10 16 -5 3
-10 -1 -10 -9z"/>
<path d="M2840 2139 c0 -5 5 -7 10 -4 6 3 10 8 10 11 0 2 -4 4 -10 4 -5 0 -10
-5 -10 -11z"/>
<path d="M2555 2130 c3 -4 -2 -10 -9 -13 -8 -3 -17 -2 -20 4 -2 5 -3 4 -2 -3
3 -16 54 -18 60 -2 3 7 -4 14 -15 17 -10 3 -17 2 -14 -3z"/>
<path d="M2795 2130 c4 -6 11 -8 16 -5 14 9 11 15 -7 15 -8 0 -12 -5 -9 -10z"/>
<path d="M2350 2126 c0 -9 30 -14 35 -6 4 6 -3 10 -14 10 -12 0 -21 -2 -21 -4z"/>
<path d="M2468 2123 c-9 -2 -20 -13 -23 -24 -4 -11 -11 -17 -16 -13 -5 3 -7 9
-4 14 3 5 1 11 -4 14 -18 11 -21 -11 -3 -27 16 -14 19 -13 46 14 16 16 27 28
25 28 -2 -1 -12 -3 -21 -6z"/>
<path d="M2744 2115 c6 -42 76 -62 82 -22 1 11 -2 14 -9 10 -19 -12 -37 -12
-34 -1 1 5 -8 14 -20 18 -15 6 -20 5 -19 -5z"/>
<path d="M2601 2111 c-10 -6 -9 -10 3 -14 8 -3 18 -2 21 3 8 13 -9 20 -24 11z"/>
<path d="M2701 2111 c-1 -8 -8 -11 -21 -8 -16 4 -20 0 -20 -19 0 -31 26 -42
47 -21 13 13 14 21 5 39 -6 13 -11 17 -11 9z"/>
<path d="M2488 2103 c-10 -2 -18 -9 -18 -14 0 -14 16 -11 30 6 7 8 11 14 9 14
-2 -1 -12 -3 -21 -6z"/>
<path d="M2267 2085 c-4 -10 -1 -15 11 -15 10 0 23 -5 28 -10 8 -8 15 -6 24 5
11 13 10 14 -4 9 -10 -4 -25 1 -35 10 -16 15 -19 15 -24 1z"/>
<path d="M1620 2080 c0 -5 7 -10 15 -10 8 0 15 5 15 10 0 6 -7 10 -15 10 -8 0
-15 -4 -15 -10z"/>
<path d="M1946 2078 c3 -4 9 -8 15 -8 5 0 9 4 9 8 0 5 -7 9 -15 9 -8 0 -12 -4
-9 -9z"/>
<path d="M2350 2079 c0 -5 5 -7 10 -4 6 3 10 8 10 11 0 2 -4 4 -10 4 -5 0 -10
-5 -10 -11z"/>
<path d="M1723 2055 c0 -8 4 -15 9 -15 4 0 8 4 8 9 0 6 -4 12 -8 15 -5 3 -9
-1 -9 -9z"/>
<path d="M2543 2064 c4 -4 2 -13 -3 -19 -7 -9 -6 -16 5 -25 18 -15 20 -50 3
-50 -6 0 -9 -3 -5 -6 7 -7 67 36 67 48 0 5 -5 6 -10 3 -15 -9 -40 13 -34 29 3
8 -3 16 -13 20 -9 4 -14 4 -10 0z"/>
<path d="M2610 2060 c0 -5 0 -12 0 -15 0 -12 14 -4 16 10 1 8 -2 15 -7 15 -5
0 -9 -4 -9 -10z"/>
<path d="M1605 2045 c-3 -11 -11 -28 -16 -38 -5 -10 -6 -23 -2 -30 5 -8 2 -8
-9 1 -10 8 -18 9 -22 3 -4 -6 2 -15 13 -20 14 -8 22 -7 31 4 6 8 9 18 6 24 -4
5 0 15 7 23 9 8 11 21 7 33 -8 20 -8 20 -15 0z"/>
<path d="M1640 2045 c0 -8 5 -15 12 -15 6 0 1 -11 -12 -25 -13 -14 -18 -25
-12 -25 7 0 12 5 12 11 0 5 5 7 12 3 7 -4 8 -3 4 4 -4 7 -2 12 3 12 6 0 10 11
9 25 -2 26 -28 36 -28 10z"/>
<path d="M2186 2044 c-9 -23 -7 -34 5 -34 5 0 8 4 4 9 -3 5 -1 12 5 16 12 8
13 25 1 25 -5 0 -12 -7 -15 -16z"/>
<path d="M2290 2029 c0 -5 5 -7 10 -4 6 3 10 8 10 11 0 2 -4 4 -10 4 -5 0 -10
-5 -10 -11z"/>
<path d="M2467 2023 c-14 -13 -7 -40 15 -59 12 -10 18 -13 13 -5 -4 8 -8 27
-7 42 1 28 -7 36 -21 22z"/>
<path d="M2786 2015 c-8 -8 -22 -15 -30 -15 -10 0 -16 -8 -15 -22 0 -13 3 -17
6 -10 2 6 9 10 14 6 5 -3 9 0 9 6 0 6 5 8 10 5 6 -4 9 -1 8 7 -2 7 2 12 8 11
6 -1 11 5 11 13 0 18 -2 18 -21 -1z"/>
<path d="M2345 2009 c-4 -6 -5 -12 -2 -15 2 -3 7 2 10 11 7 17 1 20 -8 4z"/>
<path d="M2516 2005 c4 -8 8 -15 10 -15 2 0 4 7 4 15 0 8 -4 15 -10 15 -5 0
-7 -7 -4 -15z"/>
<path d="M1734 1999 c-4 -7 -3 -10 4 -5 6 3 14 1 17 -5 4 -6 -2 -13 -13 -15
-15 -5 -19 -13 -16 -42 1 -20 -2 -43 -7 -52 -6 -10 -8 0 -5 33 5 49 5 49 -22
42 -15 -3 -33 -14 -40 -23 -7 -9 -18 -16 -23 -14 -5 1 -9 -2 -9 -8 0 -5 -6
-10 -13 -10 -17 0 -59 44 -51 53 10 10 -48 30 -80 28 -16 -2 -26 1 -22 7 6 9
-47 7 -114 -5 -19 -3 -39 -5 -44 -4 -5 1 -16 -1 -25 -5 -9 -3 -31 -8 -50 -10
-37 -4 -55 -14 -25 -14 11 0 25 -5 32 -12 9 -9 15 -9 24 0 7 7 22 12 35 12 13
0 23 4 23 10 0 6 9 6 25 0 14 -5 25 -7 25 -5 0 2 11 0 25 -5 21 -8 25 -7 25 8
0 15 2 15 10 2 6 -9 10 -11 10 -3 0 7 7 10 17 6 30 -11 -26 -26 -107 -27 -66
-1 -75 -4 -78 -21 -2 -15 -1 -16 6 -7 7 10 23 12 58 7 27 -3 55 -6 62 -7 6 -1
12 -6 12 -13 0 -6 10 -11 22 -12 25 -2 111 -43 117 -56 1 -5 12 -1 22 9 10 9
19 14 19 9 0 -4 7 -2 15 5 8 7 13 16 10 20 -3 4 1 10 8 13 10 4 12 -4 9 -27
-3 -17 -8 -35 -12 -41 -4 -5 -7 -22 -6 -37 1 -14 -3 -26 -8 -25 -9 2 -15 -37
-17 -105 -2 -39 -26 -24 -27 17 -1 19 3 37 8 40 5 3 7 12 4 19 -3 7 1 18 9 25
14 11 14 67 1 80 -9 9 -22 -20 -17 -40 3 -10 -2 -26 -11 -34 -15 -15 -21 -12
-17 8 1 5 -4 5 -11 1 -20 -13 -41 -14 -55 -3 -6 6 -26 8 -42 6 -17 -3 -31 -1
-31 3 0 5 -9 8 -19 7 -11 0 -17 -5 -15 -9 3 -5 10 -6 15 -3 5 4 9 -4 9 -16 0
-22 0 -22 15 -3 14 18 15 17 9 -16 -4 -19 -6 -43 -6 -52 0 -10 -3 -20 -9 -23
-5 -4 -9 -16 -9 -29 0 -12 -3 -26 -7 -30 -5 -4 -8 -11 -8 -14 -2 -28 -18 -86
-30 -109 -8 -15 -15 -36 -15 -46 0 -10 -13 -44 -30 -77 -16 -33 -30 -66 -30
-75 0 -9 -7 -18 -15 -21 -8 -4 -13 -10 -10 -14 3 -5 -3 -24 -14 -44 -17 -29
-18 -36 -6 -46 11 -9 15 -7 21 14 3 14 10 26 15 26 5 0 6 7 2 16 -3 9 3 23 16
35 11 11 24 37 27 59 4 22 10 37 15 35 4 -3 6 4 4 15 -2 11 0 20 6 20 5 0 9 9
9 19 0 11 5 23 10 26 6 3 10 14 10 23 0 9 7 30 15 46 8 15 13 32 10 36 -3 5
-1 11 5 15 5 3 10 19 10 36 0 16 4 29 10 29 5 0 7 7 4 15 -4 8 0 22 7 31 7 9
13 28 13 42 0 37 30 59 52 38 8 -9 15 -24 15 -33 0 -26 -29 -123 -40 -137 -6
-7 -10 -21 -9 -31 1 -16 -7 -49 -27 -115 -1 -3 -8 -18 -15 -35 -7 -16 -14 -33
-15 -37 -2 -5 -3 -9 -5 -10 -1 -2 -3 -12 -5 -22 -2 -10 -10 -23 -17 -27 -7 -5
-10 -9 -5 -9 4 0 1 -10 -8 -23 -8 -13 -12 -27 -8 -30 3 -4 1 -7 -5 -7 -6 0
-14 -9 -17 -20 -3 -11 -14 -20 -23 -20 -13 -1 -12 -4 6 -13 12 -7 19 -16 16
-20 -4 -4 -3 -7 2 -7 8 0 83 133 90 160 15 51 34 69 34 33 0 -15 2 -16 10 -3
7 11 5 19 -7 28 -9 6 -13 12 -7 12 5 0 10 14 11 31 1 17 8 37 14 45 6 8 8 14
4 14 -4 0 -2 6 4 13 6 8 7 17 3 21 -4 4 -2 7 3 6 20 -4 27 0 18 13 -6 7 -6 23
-2 37 l8 25 -2 -26 c-1 -14 4 -34 12 -43 11 -14 11 -16 -2 -16 -8 0 -18 -7
-21 -16 -10 -26 -6 -30 10 -9 14 19 15 18 9 -15 -3 -19 -15 -47 -26 -63 -11
-15 -17 -32 -14 -38 9 -14 -3 -59 -16 -59 -6 0 -7 5 -4 10 3 6 -1 10 -9 10
-18 0 -21 -16 -6 -25 16 -10 11 -51 -7 -66 -16 -12 -17 -12 -7 1 6 8 11 25 12
38 1 19 -2 21 -14 12 -8 -7 -14 -20 -15 -29 0 -9 -11 -38 -24 -66 -13 -27 -21
-53 -19 -57 2 -3 -4 -9 -15 -13 -21 -6 -35 -42 -20 -51 5 -3 8 -2 7 3 -2 4 2
9 7 10 6 0 9 -4 7 -10 -2 -7 8 -1 22 12 14 14 26 33 26 43 0 10 5 18 11 18 5
0 7 5 4 10 -3 6 0 13 9 16 9 3 12 12 9 21 -4 9 -2 14 3 11 5 -4 17 20 28 53
10 32 22 57 26 54 5 -3 7 3 6 12 -4 22 14 63 26 63 5 0 6 9 3 20 -4 11 -2 20
4 20 6 0 11 11 11 24 0 14 4 27 9 31 6 3 8 19 6 35 -2 18 2 30 10 34 8 3 14
13 15 23 2 67 14 80 41 47 9 -11 10 -17 1 -23 -7 -4 -8 -12 -2 -21 10 -16 9
-19 31 63 7 26 17 47 22 47 4 0 7 8 6 18 -3 36 1 75 8 68 8 -8 4 -76 -5 -91
-8 -12 -12 -31 -15 -67 -1 -15 -6 -30 -10 -34 -12 -13 -8 -28 17 -56 14 -14
23 -28 20 -31 -3 -3 -1 -13 5 -24 19 -35 29 -71 36 -128 2 -16 4 -30 5 -30 11
0 19 -315 7 -322 -4 -2 -5 -9 -2 -14 4 -5 2 -9 -3 -9 -6 0 -9 -16 -7 -35 2
-19 0 -37 -5 -40 -5 -3 -12 -30 -15 -60 -4 -31 -11 -58 -16 -61 -5 -3 -9 -11
-9 -19 0 -8 -5 -26 -12 -42 -6 -15 -12 -31 -13 -35 -2 -5 -3 -9 -4 -10 -2 -2
-4 -14 -7 -27 -6 -31 -23 -53 -37 -44 -6 3 -7 1 -3 -5 7 -12 5 -16 -39 -66
-14 -16 -25 -33 -25 -37 0 -16 -49 -61 -59 -54 -6 3 -11 2 -11 -3 0 -13 -36
-53 -43 -46 -3 3 -14 -2 -26 -12 -11 -10 -30 -19 -43 -22 -54 -9 -161 -13
-176 -6 -19 8 -28 11 -41 13 -4 0 -30 20 -57 44 -26 23 -45 36 -40 30 11 -19
-19 -16 -34 2 -7 8 -9 15 -5 15 4 0 2 6 -4 14 -13 15 -35 16 -48 1 -4 -4 -3
-5 3 -2 7 4 14 -3 18 -17 3 -13 15 -26 26 -29 11 -3 20 -10 20 -17 0 -6 -5 -8
-12 -4 -10 6 -9 3 0 -8 8 -9 20 -14 28 -11 8 3 14 0 14 -7 0 -8 9 -10 28 -5
26 6 26 6 7 -10 -11 -9 -15 -14 -8 -11 6 4 18 -3 26 -14 8 -12 21 -20 28 -18
8 2 13 -3 11 -10 -1 -8 2 -11 9 -6 6 3 15 0 20 -7 7 -11 12 -12 28 -2 15 10
20 10 24 0 5 -17 147 -18 147 -1 0 7 24 24 53 37 45 22 53 23 58 10 4 -12 10
-7 22 18 9 19 26 41 39 49 22 15 28 16 57 19 8 1 11 8 8 21 -3 11 -1 20 4 20
5 0 9 6 9 13 0 7 11 25 25 40 14 15 23 27 20 27 -4 0 3 13 14 28 11 16 23 40
26 55 4 15 11 27 17 27 5 0 6 -6 2 -13 -5 -8 -3 -8 9 2 16 13 14 36 -3 26 -4
-3 -6 4 -3 15 5 17 8 18 22 8 14 -12 14 -11 2 4 -8 11 -10 25 -5 35 9 23 11
29 13 49 1 14 3 15 18 3 15 -12 16 -12 9 6 -17 43 -17 65 -1 59 13 -5 14 -2 6
20 -7 18 -7 29 2 38 7 7 13 24 15 38 2 21 7 46 11 69 1 2 8 -2 16 -9 15 -12
17 -63 3 -53 -5 2 -8 -10 -7 -29 3 -41 -9 -98 -25 -117 -9 -12 -8 -13 4 -6 13
8 13 7 1 -8 -8 -10 -15 -25 -16 -35 -4 -37 -18 -83 -26 -88 -5 -3 -9 -16 -9
-29 0 -13 -5 -27 -10 -30 -6 -4 -8 -10 -5 -15 3 -5 1 -11 -5 -15 -5 -3 -10
-15 -10 -25 0 -10 -6 -23 -13 -27 -16 -9 -52 -63 -43 -63 4 0 -2 -10 -14 -22
-11 -12 -20 -28 -20 -35 0 -7 -5 -13 -11 -13 -13 0 -49 -38 -49 -52 0 -5 10
-3 23 4 12 7 25 11 30 10 4 -1 7 2 7 7 0 5 9 7 20 4 11 -3 17 -10 13 -17 -3
-6 11 6 31 27 38 38 65 47 29 9 -10 -10 -22 -26 -28 -36 -5 -9 -21 -18 -35
-18 -21 -2 -113 -68 -93 -68 4 0 -2 -7 -14 -15 -12 -8 -29 -12 -40 -8 -10 3
-15 3 -11 -2 11 -11 -33 -47 -52 -42 -9 2 -21 -2 -27 -8 -7 -7 -17 -15 -24
-17 -7 -2 -9 -10 -5 -17 6 -9 11 -9 22 0 8 6 14 8 14 5 0 -4 7 0 16 8 8 9 24
16 35 16 10 0 19 5 19 12 0 6 3 9 6 5 3 -3 18 5 33 19 14 13 34 27 44 30 9 3
17 12 17 21 0 13 3 13 15 3 12 -10 16 -9 21 4 4 11 13 15 25 11 11 -4 19 -2
19 5 0 9 40 31 62 34 3 1 10 4 14 9 4 4 14 7 23 7 9 0 27 9 40 19 14 10 31 17
38 14 7 -3 13 0 13 6 0 6 11 16 25 21 14 5 28 16 31 24 3 8 12 12 20 9 8 -3
12 -9 9 -14 -3 -4 8 -3 25 2 16 6 30 15 30 20 0 5 7 9 15 9 20 0 19 -6 -3 -27
-18 -17 -29 -22 -60 -27 -21 -4 -35 -24 -28 -41 4 -12 12 -15 24 -10 9 4 22 8
29 8 7 0 11 5 10 11 -1 6 4 10 11 8 6 -1 12 2 12 8 0 6 3 9 8 8 14 -4 52 23
52 37 0 8 7 15 16 15 9 0 24 9 34 20 24 27 100 54 100 36 0 -8 -16 -21 -35
-30 -35 -17 -51 -33 -42 -42 3 -3 15 4 26 15 12 12 27 21 35 21 7 0 27 7 42
15 16 8 37 15 46 15 9 0 18 4 20 10 2 5 16 11 32 12 20 2 35 12 46 30 9 15 20
25 23 21 4 -3 7 1 7 10 0 10 4 17 8 17 11 0 53 36 55 47 1 4 7 7 14 5 7 -2 13
2 13 8 0 5 9 10 19 10 11 0 23 5 26 11 4 6 13 8 21 5 8 -3 14 -1 14 4 0 6 7
10 15 10 8 0 15 4 15 10 0 5 7 7 15 4 8 -4 15 -2 15 4 0 5 15 13 33 17 17 4
34 9 37 10 3 1 23 9 45 19 74 31 80 33 90 32 6 0 9 -7 7 -14 -2 -8 1 -11 8 -7
6 4 8 15 5 25 -4 13 1 19 22 25 15 3 47 24 70 46 40 37 83 52 83 28 0 -5 5 -7
10 -4 8 5 8 11 0 20 -8 9 -5 14 11 18 15 4 19 2 15 -9 -7 -19 -6 -19 63 20 34
19 61 32 61 29 0 -3 8 1 18 9 16 14 37 24 55 26 4 1 14 8 23 16 8 8 21 13 29
10 8 -4 15 -1 15 5 0 7 -11 10 -27 8 -27 -4 -77 16 -88 34 -4 5 -11 6 -17 3
-6 -4 -8 -3 -5 3 4 6 -6 21 -21 35 -35 32 -68 71 -75 89 -4 10 -6 9 -6 -3 -1
-10 -8 -18 -17 -18 -9 0 -29 -9 -45 -21 -16 -11 -35 -19 -42 -16 -7 3 -21 -1
-31 -9 -11 -7 -23 -11 -27 -8 -5 3 -9 1 -9 -5 0 -5 -9 -8 -20 -6 -11 2 -20 0
-20 -6 0 -5 -8 -9 -19 -9 -10 0 -24 -7 -31 -15 -7 -8 -16 -12 -21 -9 -5 3 -12
-1 -15 -10 -3 -8 -19 -18 -35 -21 -16 -4 -29 -10 -29 -15 0 -4 -9 -10 -19 -13
-10 -2 -26 -20 -36 -40 -9 -19 -24 -42 -33 -50 -9 -9 -41 -39 -71 -67 -29 -28
-55 -49 -58 -46 -3 2 -20 -11 -39 -29 -38 -39 -90 -69 -103 -60 -5 3 -11 1
-13 -3 -6 -15 -112 -62 -139 -62 -15 0 -30 -4 -34 -10 -3 -5 -12 -7 -20 -3 -8
3 -15 0 -15 -7 0 -7 -6 -10 -14 -7 -7 3 -19 0 -25 -6 -7 -7 -15 -12 -19 -13
-21 -2 -59 -25 -75 -44 -12 -15 -25 -20 -39 -17 -15 4 -27 -2 -40 -19 -11 -13
-25 -24 -32 -24 -6 0 -29 -18 -51 -40 -21 -21 -42 -37 -45 -35 -4 3 -13 -1
-19 -9 -7 -8 -20 -13 -29 -11 -9 1 -20 -3 -24 -8 -4 -7 -11 -7 -21 1 -7 7 -17
9 -20 5 -4 -3 -7 0 -7 9 0 8 12 25 26 37 20 17 23 25 14 31 -10 6 -8 11 8 21
15 9 18 17 11 25 -7 8 -5 17 6 28 9 9 13 16 8 16 -4 0 -1 6 7 13 8 7 22 21 30
31 13 18 13 19 0 11 -13 -8 -13 -6 -1 8 7 9 11 23 8 31 -3 8 1 20 9 27 12 10
12 14 2 20 -11 7 -11 9 0 9 7 0 11 4 7 10 -6 10 15 50 27 50 5 0 3 -8 -3 -19
-27 -42 57 -74 87 -33 7 9 10 20 8 24 -3 4 1 5 9 2 9 -3 13 2 12 18 -1 13 2
29 8 36 5 6 6 12 2 12 -4 0 -1 7 6 16 7 9 12 29 11 44 -1 16 2 31 8 35 5 3 10
17 10 31 0 17 4 23 13 19 6 -4 2 2 -10 13 -29 25 -29 33 0 55 21 15 23 24 20
79 -2 35 -3 85 -3 111 0 27 -4 46 -9 43 -15 -10 -7 28 9 42 8 8 9 11 3 7 -14
-7 -14 -6 -18 43 -1 17 2 32 7 32 6 0 8 7 4 15 -3 8 0 15 7 15 7 0 4 5 -6 11
-13 8 -18 20 -16 42 2 18 -2 41 -8 51 -7 13 -8 28 -2 44 6 15 5 21 -1 17 -6
-3 -10 1 -10 10 0 9 -3 14 -7 12 -5 -3 -9 5 -10 16 -3 41 -16 82 -31 99 -8 10
-12 25 -8 34 4 12 2 15 -9 10 -10 -4 -15 1 -15 14 0 11 -5 20 -11 20 -5 0 -8
4 -5 9 3 4 -6 21 -19 37 -14 16 -25 42 -26 59 0 26 -2 27 -9 10 -9 -20 -9 -19
-15 2 -4 12 -18 29 -31 38 -13 8 -24 22 -24 30 0 8 -8 15 -17 15 -9 0 -24 7
-34 16 -13 12 -19 12 -25 3z m-249 -39 c3 -5 1 -10 -4 -10 -6 0 -11 5 -11 10
0 6 2 10 4 10 3 0 8 -4 11 -10z m55 -20 c0 -5 -7 -7 -15 -4 -8 4 -15 8 -15 10
0 2 7 4 15 4 8 0 15 -4 15 -10z m-50 -12 c0 -3 -9 -6 -20 -5 -11 1 -20 5 -20
9 0 3 9 6 20 5 11 -1 20 -5 20 -9z m185 -55 c-8 -26 -12 -50 -9 -55 6 -9 -20
-11 -29 -1 -4 3 -2 11 3 18 5 6 10 26 12 43 1 18 6 32 10 32 4 0 4 8 1 18 -6
15 -4 15 9 4 15 -12 15 -18 3 -59z m-100 36 c10 -16 -3 -23 -18 -11 -8 7 -18
8 -22 4 -5 -4 -5 -1 -1 6 9 15 32 16 41 1z m-58 -13 c0 -6 -11 -11 -24 -11
-12 0 -23 5 -23 11 0 5 11 10 23 10 13 0 24 -5 24 -10z m193 -52 c0 -8 -4 -14
-8 -14 -4 0 -8 9 -8 19 0 11 4 17 8 15 4 -3 8 -12 8 -20z m67 -41 c9 -21 16
-41 15 -44 -1 -4 8 -15 18 -24 11 -10 20 -26 20 -36 0 -10 5 -21 11 -24 6 -4
8 -14 5 -22 -4 -9 -2 -11 6 -7 7 5 9 0 6 -13 -3 -11 -1 -28 4 -37 18 -31 31
-116 18 -116 -5 0 -9 3 -8 8 4 12 -43 102 -53 102 -6 0 -7 5 -4 10 3 6 2 10
-4 10 -5 0 -8 9 -6 20 2 11 0 18 -6 15 -5 -4 -9 0 -9 8 0 8 -9 22 -20 32 -11
10 -17 22 -13 28 3 5 1 7 -5 3 -6 -3 -17 8 -26 25 -18 37 -21 63 -5 53 6 -3
10 1 9 12 -5 49 26 47 47 -3z m-77 -10 c0 -5 -5 -15 -10 -23 -8 -12 -10 -11
-10 8 0 12 5 22 10 22 6 0 10 -3 10 -7z m-45 -22 c3 -5 2 -12 -3 -15 -5 -3 -9
1 -9 9 0 17 3 19 12 6z m-19 -77 c-9 -8 -20 -12 -26 -9 -16 10 -12 33 7 44 25
14 40 -14 19 -35z m-96 -48 c0 -2 -8 -10 -17 -17 -16 -13 -17 -12 -4 4 13 16
21 21 21 13z m214 -84 c14 -23 19 -39 13 -35 -9 5 -9 3 -1 -8 13 -16 39 -90
36 -101 -1 -5 3 -8 8 -8 6 0 10 -11 10 -25 0 -14 7 -42 15 -63 9 -20 15 -46
13 -57 -1 -11 1 -25 5 -32 7 -11 12 -110 7 -123 -1 -3 -3 -28 -3 -57 -2 -59
-8 -69 -34 -54 -15 9 -15 10 -2 11 12 0 16 8 13 35 -1 19 2 35 7 35 6 0 7 6 2
13 -4 6 -8 28 -8 47 -1 19 -4 40 -8 47 -4 6 1 14 10 17 15 6 14 8 -2 20 -10 7
-20 29 -22 51 -2 21 -8 46 -13 55 -5 10 -5 21 0 26 6 6 1 23 -14 44 -13 19
-22 43 -20 53 1 9 -1 15 -5 12 -10 -6 -36 43 -28 51 3 4 -7 25 -23 48 -16 23
-28 50 -25 61 2 11 4 22 4 25 2 8 39 -42 65 -88z m-209 8 c-9 -10 -17 -27 -18
-39 -1 -11 -5 -21 -9 -21 -11 0 -5 28 17 75 13 30 19 35 22 22 3 -10 -3 -27
-12 -37z m-28 20 c2 -20 -8 -26 -20 -13 -4 3 -2 12 4 20 15 17 14 17 16 -7z
m400 -312 c-3 -7 -5 -2 -5 12 0 14 2 19 5 13 2 -7 2 -19 0 -25z m1199 -203
c-17 -13 -32 -23 -35 -23 -7 2 -64 -24 -71 -32 -3 -3 -36 -21 -75 -40 -38 -19
-71 -38 -73 -42 -2 -4 -10 -4 -18 -1 -8 3 -14 0 -14 -6 0 -6 -7 -11 -15 -11
-8 0 -15 -4 -15 -8 0 -13 -74 -42 -83 -33 -13 13 30 48 82 68 25 9 49 21 52
26 3 4 12 7 20 5 8 -2 13 3 11 10 -1 8 2 11 8 7 6 -4 16 -2 23 3 7 5 27 13 45
17 17 3 32 11 32 16 0 5 6 9 13 9 8 0 38 13 68 30 65 36 85 38 45 5z m64 -3
c0 -5 -7 -9 -15 -9 -8 0 -12 4 -9 9 3 4 9 8 15 8 5 0 9 -4 9 -8z m-70 -36 c-8
-8 -26 -17 -40 -21 -23 -6 -23 -5 5 14 34 24 57 28 35 7z m30 -16 c0 -5 -5
-10 -11 -10 -5 0 -7 5 -4 10 3 6 8 10 11 10 2 0 4 -4 4 -10z m-1132 -13 c6 0
12 -6 12 -12 0 -7 -12 -11 -27 -10 -16 1 -37 -2 -48 -6 -18 -6 -21 -3 -21 18
0 23 3 24 36 17 19 -3 41 -7 48 -7z m1027 -8 c-4 -5 -17 -15 -28 -20 -12 -5
-37 -18 -54 -29 -35 -21 -45 -17 -15 7 21 17 64 37 75 35 4 -1 7 3 7 8 0 6 5
10 11 10 5 0 7 -5 4 -11z m165 2 c0 -4 -10 -20 -21 -35 -15 -19 -25 -24 -32
-17 -6 6 -17 5 -33 -6 -13 -8 -24 -11 -24 -7 0 5 -5 1 -11 -9 -6 -9 -14 -15
-20 -12 -5 4 -9 1 -9 -4 0 -6 -7 -11 -15 -11 -8 0 -15 -4 -15 -10 0 -5 -3 -9
-7 -8 -12 2 -46 -13 -65 -30 -10 -8 -18 -12 -18 -7 0 4 -8 1 -17 -6 -10 -7 -2
5 17 26 19 22 38 41 43 43 4 2 5 7 2 12 -3 4 1 12 8 17 23 17 116 45 127 38 6
-4 17 0 23 8 10 13 29 21 60 26 4 0 7 -3 7 -8z m80 0 c0 -5 -7 -12 -16 -15
-14 -5 -15 -4 -4 9 14 17 20 19 20 6z m-353 -115 c-15 -15 -70 -41 -73 -34 -1
2 -11 -5 -22 -15 -14 -13 -22 -15 -27 -7 -5 8 -11 6 -19 -6 -9 -12 -15 -14
-20 -5 -5 7 5 17 26 26 18 8 29 14 24 15 -5 0 -3 7 4 15 7 9 15 14 17 12 2 -3
18 9 35 25 31 29 31 29 51 9 18 -18 19 -21 4 -35z m-310 -100 c-22 -23 -27
-20 -14 8 7 15 16 21 21 16 5 -5 2 -15 -7 -24z m233 29 c0 -2 -9 -9 -20 -15
-12 -6 -20 -7 -20 -1 0 5 8 12 18 14 9 3 18 5 20 6 1 0 2 -1 2 -4z m-101 -26
c-7 -4 -16 -6 -20 -3 -4 2 -10 0 -14 -6 -3 -5 -12 -10 -18 -10 -7 0 1 9 17 19
17 11 34 17 39 14 5 -3 3 -9 -4 -14z m151 17 c0 -3 -4 -8 -10 -11 -5 -3 -10
-1 -10 4 0 6 5 11 10 11 6 0 10 -2 10 -4z m-216 -21 c-8 -19 -44 -40 -44 -26
0 8 38 41 47 41 1 0 0 -7 -3 -15z m176 -6 c0 -6 -7 -9 -15 -5 -8 3 -15 1 -15
-4 0 -5 -9 -14 -20 -20 -15 -8 -20 -8 -20 2 0 13 33 34 58 37 6 0 12 -4 12
-10z m-225 -69 c-5 -9 -87 -50 -98 -50 -4 0 -7 4 -7 9 0 8 50 32 75 35 6 1 9
7 8 14 -2 6 4 9 12 6 8 -4 13 -10 10 -14z m-260 -120 c3 -5 -3 -10 -14 -10
-12 0 -21 -4 -21 -8 0 -9 -70 -45 -76 -39 -5 5 30 37 59 53 28 15 44 17 52 4z
m19 -51 c-15 -16 -30 -28 -33 -27 -11 2 -45 -14 -63 -30 -10 -8 -18 -12 -18
-7 0 4 -7 2 -15 -5 -8 -7 -15 -9 -15 -4 1 9 85 64 99 64 4 0 15 8 24 18 10 10
24 19 32 19 11 0 8 -8 -11 -28z m-204 -7 c0 -10 -57 -31 -64 -24 -3 3 6 13 22
22 26 17 42 17 42 2z m-150 -74 c0 -5 -8 -12 -17 -15 -10 -4 -26 -16 -35 -28
-16 -18 -17 -18 -18 -2 0 10 5 15 10 12 6 -3 10 -1 10 5 0 6 5 17 12 24 14 14
38 17 38 4z m-845 -178 c3 -6 -1 -7 -9 -4 -18 7 -21 14 -7 14 6 0 13 -4 16
-10z"/>
<path d="M3798 1992 c-3 -9 -1 -26 3 -37 6 -15 8 -11 8 18 1 40 -4 48 -11 19z"/>
<path d="M2367 1981 c-3 -12 0 -18 7 -15 6 2 20 -2 31 -11 20 -14 20 -15 -2
-21 -13 -3 -23 -12 -23 -18 0 -8 -16 -12 -47 -11 -37 1 -49 5 -51 18 -4 18
-22 24 -22 6 0 -5 -5 -7 -11 -3 -7 4 -6 -3 2 -17 7 -15 14 -19 17 -11 2 6 8 9
13 6 6 -3 5 -12 -2 -20 -26 -31 -19 -62 16 -83 29 -17 35 -18 45 -5 7 7 16 11
21 8 5 -3 9 0 9 5 0 12 -27 10 -47 -2 -8 -5 -13 -3 -13 3 0 6 -4 9 -9 6 -5 -3
-14 1 -21 9 -10 12 -9 15 8 15 12 0 23 4 26 9 7 10 25 9 44 -2 7 -5 12 -3 12
6 0 14 -35 17 -55 5 -5 -3 -19 -2 -29 2 -28 10 -2 25 47 26 37 0 57 10 101 47
15 13 17 20 8 23 -6 3 -9 11 -6 16 4 7 2 8 -5 4 -6 -4 -14 0 -17 8 -9 22 -41
20 -47 -3z"/>
<path d="M2630 1990 c0 -5 5 -10 10 -10 6 0 10 5 10 10 0 6 -4 10 -10 10 -5 0
-10 -4 -10 -10z"/>
<path d="M1920 1976 c0 -2 7 -7 16 -10 8 -3 12 -2 9 4 -6 10 -25 14 -25 6z"/>
<path d="M2300 1965 c-15 -18 -6 -45 13 -45 18 0 39 24 30 33 -3 4 -14 0 -24
-9 -18 -17 -22 -2 -6 24 11 17 2 15 -13 -3z"/>
<path d="M2510 1956 c0 -4 10 -16 23 -26 20 -17 21 -19 4 -25 -11 -5 -26 0
-40 11 l-22 19 19 -22 c17 -21 15 -28 -7 -24 -5 1 -6 -3 -3 -8 8 -12 59 13 77
37 7 9 9 14 4 9 -4 -4 -19 3 -32 15 -13 12 -23 18 -23 14z"/>
<path d="M2860 1951 c0 -6 4 -13 10 -16 6 -3 7 1 4 9 -7 18 -14 21 -14 7z"/>
<path d="M3140 1951 c0 -6 4 -12 8 -15 5 -3 9 1 9 9 0 8 -4 15 -9 15 -4 0 -8
-4 -8 -9z"/>
<path d="M1845 1940 c4 -6 11 -8 16 -5 5 4 9 1 9 -4 0 -6 5 -11 11 -11 8 0 8
5 -1 15 -14 17 -45 21 -35 5z"/>
<path d="M2703 1935 c0 -8 4 -12 9 -9 5 3 6 10 3 15 -9 13 -12 11 -12 -6z"/>
<path d="M2770 1941 c0 -6 5 -13 10 -16 6 -4 8 -11 5 -16 -3 -5 1 -6 9 -3 19
7 20 16 4 32 -14 14 -28 16 -28 3z"/>
<path d="M1595 1930 c-3 -5 -1 -10 4 -10 6 0 11 5 11 10 0 6 -2 10 -4 10 -3 0
-8 -4 -11 -10z"/>
<path d="M1980 1914 c0 -8 5 -12 10 -9 6 4 8 11 5 16 -9 14 -15 11 -15 -7z"/>
<path d="M2128 1918 c9 -11 10 -17 2 -20 -8 -2 -5 -12 8 -27 18 -24 19 -24 24
-4 6 23 2 31 -27 53 -18 14 -19 14 -7 -2z"/>
<path d="M2740 1926 c0 -2 8 -10 18 -17 15 -13 16 -12 3 4 -13 16 -21 21 -21
13z"/>
<path d="M2863 1905 c1 -12 -3 -19 -10 -17 -7 1 -13 -3 -13 -9 0 -6 7 -9 15
-5 8 3 15 1 15 -5 0 -6 5 -7 11 -3 8 5 8 9 -1 14 -6 4 -11 10 -10 14 1 4 -1
12 -4 19 -3 6 -4 3 -3 -8z"/>
<path d="M3705 1874 c0 -26 4 -43 10 -40 5 2 8 10 6 17 -2 8 -3 24 -3 36 1 12
-2 24 -6 27 -4 2 -7 -16 -7 -40z"/>
<path d="M2002 1892 c-15 -12 -15 -12 6 -7 19 5 23 3 20 -11 -2 -11 4 -20 14
-22 13 -2 16 2 13 17 -2 13 1 21 10 21 14 0 15 -16 3 -36 -4 -6 1 -20 10 -30
10 -10 18 -23 19 -29 0 -5 10 -15 22 -21 31 -16 46 -32 38 -40 -4 -4 -17 1
-28 12 l-22 19 18 -29 c11 -16 19 -43 18 -61 0 -25 3 -32 14 -28 8 3 11 8 9
11 -3 3 2 11 12 19 9 8 12 12 5 9 -16 -8 -22 5 -14 27 6 17 11 16 53 -16 25
-20 50 -32 54 -29 4 4 4 1 0 -5 -5 -8 -1 -13 10 -13 14 0 15 -3 6 -12 -10 -10
-17 -10 -32 0 -28 17 -31 15 -24 -11 3 -15 -2 -37 -14 -58 -34 -62 -34 -78 1
-93 45 -18 57 -11 46 27 -11 39 -11 40 1 32 9 -6 11 0 9 23 0 4 -7 6 -15 4 -8
-2 -14 4 -14 13 0 8 6 15 14 15 8 0 23 11 34 25 23 29 29 31 29 10 0 -8 -5
-11 -10 -8 -6 3 -7 1 -3 -5 4 -6 14 -8 22 -5 13 5 15 1 9 -17 -6 -18 -4 -22 7
-18 16 7 78 -17 78 -29 0 -13 133 -8 138 6 2 6 8 9 13 5 5 -3 15 -2 22 3 6 4
19 8 27 8 8 0 22 5 30 10 8 5 20 10 27 11 33 5 82 26 86 38 11 27 -8 38 -39
22 -53 -27 -102 -46 -118 -46 -9 0 -16 -4 -16 -10 0 -5 -7 -7 -16 -3 -9 3 -19
1 -23 -4 -8 -14 -111 -24 -111 -12 0 5 -3 8 -7 8 -21 -3 -33 2 -33 15 0 7 -6
19 -14 26 -8 6 -12 19 -9 28 4 14 3 15 -6 2 -7 -11 -5 -20 7 -34 17 -18 16
-18 -13 -3 -17 8 -48 31 -70 51 -60 53 -65 57 -65 52 0 -2 -15 10 -32 28 -18
17 -47 43 -63 56 -47 38 -54 57 -12 31 20 -12 37 -18 37 -12 0 17 -4 26 -12
24 -3 -1 -12 4 -18 12 -7 8 -17 15 -23 15 -6 0 -19 8 -30 18 -23 21 -63 23
-85 4z"/>
<path d="M2423 1895 c0 -8 4 -12 9 -9 5 3 6 10 3 15 -9 13 -12 11 -12 -6z"/>
<path d="M3677 1903 c-4 -3 -7 -11 -7 -17 0 -6 5 -5 12 2 6 6 9 14 7 17 -3 3
-9 2 -12 -2z"/>
<path d="M2648 1893 c7 -3 16 -2 19 1 4 3 -2 6 -13 5 -11 0 -14 -3 -6 -6z"/>
<path d="M1370 1879 c0 -5 5 -7 10 -4 6 3 10 8 10 11 0 2 -4 4 -10 4 -5 0 -10
-5 -10 -11z"/>
<path d="M2740 1876 c0 -9 5 -16 10 -16 6 0 10 4 10 9 0 6 -4 13 -10 16 -5 3
-10 -1 -10 -9z"/>
<path d="M2386 1872 c-3 -5 1 -9 9 -9 8 0 15 4 15 9 0 4 -4 8 -9 8 -6 0 -12
-4 -15 -8z"/>
<path d="M1128 1863 c7 -3 16 -2 19 1 4 3 -2 6 -13 5 -11 0 -14 -3 -6 -6z"/>
<path d="M1190 1860 c0 -5 5 -10 10 -10 6 0 10 5 10 10 0 6 -4 10 -10 10 -5 0
-10 -4 -10 -10z"/>
<path d="M2409 1843 c-13 -16 -12 -17 4 -4 9 7 17 15 17 17 0 8 -8 3 -21 -13z"/>
<path d="M2690 1850 c0 -5 5 -10 10 -10 6 0 10 5 10 10 0 6 -4 10 -10 10 -5 0
-10 -4 -10 -10z"/>
<path d="M1595 1841 c-3 -5 -2 -12 3 -15 5 -3 9 1 9 9 0 17 -3 19 -12 6z"/>
<path d="M2640 1847 c0 -2 6 -10 14 -16 11 -9 16 -9 22 1 4 7 4 10 -1 6 -4 -4
-14 -3 -22 3 -7 6 -13 9 -13 6z"/>
<path d="M2380 1833 c0 -7 5 -15 10 -18 8 -5 7 -11 -1 -21 -6 -8 -10 -16 -8
-19 3 -2 10 4 16 13 8 14 7 23 -3 37 -8 10 -14 14 -14 8z"/>
<path d="M2740 1830 c0 -5 7 -10 16 -10 8 0 12 5 9 10 -3 6 -10 10 -16 10 -5
0 -9 -4 -9 -10z"/>
<path d="M2876 1829 c4 -8 7 -28 5 -46 -3 -37 14 -45 23 -10 10 36 7 46 -15
58 -17 9 -20 8 -13 -2z"/>
<path d="M2520 1810 c-9 -6 -10 -10 -3 -10 6 0 15 5 18 10 8 12 4 12 -15 0z"/>
<path d="M2686 1812 c-2 -4 3 -18 12 -30 l17 -22 0 30 c0 28 -17 41 -29 22z"/>
<path d="M3801 1804 c0 -11 3 -14 6 -6 3 7 2 16 -1 19 -3 4 -6 -2 -5 -13z"/>
<path d="M2244 1785 c-9 -19 -9 -27 2 -36 12 -10 13 -9 8 5 -5 12 0 16 21 16
17 0 24 -4 19 -12 -4 -7 -3 -8 5 -4 9 6 9 11 0 22 -6 8 -14 12 -17 9 -3 -2
-10 2 -16 10 -9 13 -13 11 -22 -10z"/>
<path d="M2779 1799 c20 -8 21 -12 10 -25 -10 -13 -10 -17 1 -24 12 -7 11 -10
-3 -16 -10 -4 -23 -2 -30 5 -15 15 -24 14 -31 -5 -5 -13 -4 -14 7 -6 16 14 27
6 27 -18 0 -12 8 -17 29 -16 16 1 27 4 24 9 -2 4 0 7 6 7 14 0 1 33 -16 43
-12 7 -11 12 4 30 10 11 13 17 6 14 -6 -4 -14 -3 -18 3 -3 5 -14 10 -23 9 -12
0 -10 -3 7 -10z"/>
<path d="M2196 1785 c4 -8 11 -15 16 -15 6 0 5 6 -2 15 -7 8 -14 15 -16 15 -2
0 -1 -7 2 -15z"/>
<path d="M3603 1787 c-4 -6 -8 -24 -7 -39 0 -16 -3 -28 -9 -28 -5 0 -7 -7 -3
-15 3 -9 -3 -24 -12 -33 -10 -10 -18 -32 -18 -48 0 -16 -6 -40 -13 -53 l-13
-24 -18 23 c-11 15 -19 19 -24 11 -4 -6 -3 -11 3 -11 17 0 -1 -33 -41 -75 -42
-44 -45 -50 -22 -59 8 -3 12 -2 9 4 -3 6 3 10 14 10 29 0 103 78 120 126 8 21
18 42 23 45 5 3 12 35 15 70 3 35 9 72 14 81 11 20 -5 34 -18 15z"/>
<path d="M984 1764 c-36 -52 -37 -60 -4 -28 18 18 30 38 28 45 -3 8 -12 2 -24
-17z"/>
<path d="M2540 1786 c0 -2 8 -10 18 -17 15 -13 16 -12 3 4 -13 16 -21 21 -21
13z"/>
<path d="M2740 1780 c0 -5 5 -10 11 -10 5 0 7 5 4 10 -3 6 -8 10 -11 10 -2 0
-4 -4 -4 -10z"/>
<path d="M1267 1758 c-7 -5 -2 -8 15 -8 15 0 29 4 32 8 6 10 -31 10 -47 0z"/>
<path d="M2325 1760 c3 -5 12 -7 20 -3 21 7 19 13 -6 13 -11 0 -18 -4 -14 -10z"/>
<path d="M2407 1759 c7 -7 15 -10 18 -7 3 3 -2 9 -12 12 -14 6 -15 5 -6 -5z"/>
<path d="M1183 1736 c-13 -7 -32 -21 -43 -31 -11 -10 -20 -15 -20 -12 0 4 -16
-9 -35 -27 -19 -19 -35 -41 -35 -50 0 -9 -5 -16 -12 -16 -6 0 -8 -3 -5 -7 4
-3 2 -12 -4 -20 -6 -7 -8 -13 -4 -13 5 0 0 -9 -10 -20 -13 -14 -14 -19 -4 -15
8 3 24 21 37 40 12 19 27 35 33 35 8 0 8 4 0 14 -10 12 -8 13 11 8 20 -5 21
-3 11 10 -11 12 -6 20 32 47 25 18 45 29 45 25 0 -4 10 2 23 13 12 11 29 23
37 26 9 3 4 5 -10 5 -14 0 -35 -6 -47 -12z"/>
<path d="M2380 1740 c0 -5 5 -10 11 -10 5 0 7 5 4 10 -3 6 -8 10 -11 10 -2 0
-4 -4 -4 -10z"/>
<path d="M2640 1729 c0 -9 7 -20 16 -23 9 -4 14 -9 10 -13 -3 -3 3 -13 14 -20
18 -12 23 -13 37 -1 9 7 19 12 22 10 3 -2 7 2 9 8 3 7 -7 6 -27 -4 -32 -17
-40 -11 -18 14 10 12 9 12 -5 1 -16 -12 -19 -10 -27 10 -5 13 -10 20 -11 14 0
-5 -5 -3 -10 5 -8 13 -10 13 -10 -1z"/>
<path d="M2866 1732 c-3 -5 1 -9 9 -9 8 0 12 4 9 9 -3 4 -7 8 -9 8 -2 0 -6 -4
-9 -8z"/>
<path d="M2327 1715 c-8 -8 -18 -11 -21 -7 -4 3 -4 0 -1 -8 3 -8 17 -23 32
-34 21 -15 27 -16 34 -5 6 10 2 15 -14 17 -34 6 -45 22 -19 28 12 4 22 10 22
15 0 14 -17 11 -33 -6z"/>
<path d="M2416 1722 c-3 -5 1 -9 9 -9 8 0 12 4 9 9 -3 4 -7 8 -9 8 -2 0 -6 -4
-9 -8z"/>
<path d="M3723 1715 c0 -8 4 -12 9 -9 5 3 6 10 3 15 -9 13 -12 11 -12 -6z"/>
<path d="M2500 1687 c-18 -25 -19 -28 -4 -14 11 9 24 14 28 10 4 -5 6 -1 4 7
-2 8 3 14 10 12 8 -1 11 2 7 8 -10 16 -18 11 -45 -23z"/>
<path d="M3216 1711 c-3 -5 1 -11 9 -15 15 -6 29 7 18 18 -9 9 -21 8 -27 -3z"/>
<path d="M3750 1691 c0 -17 5 -31 10 -31 6 0 10 11 10 24 0 14 -4 28 -10 31
-6 4 -10 -7 -10 -24z"/>
<path d="M1361 1694 c0 -11 3 -14 6 -6 3 7 2 16 -1 19 -3 4 -6 -2 -5 -13z"/>
<path d="M1560 1689 c0 -5 5 -7 10 -4 6 3 10 8 10 11 0 2 -4 4 -10 4 -5 0 -10
-5 -10 -11z"/>
<path d="M3136 1679 c11 -49 12 -69 3 -75 -5 -3 -7 -10 -3 -15 4 -6 10 -6 19
1 10 8 10 20 2 53 -5 23 -14 46 -18 51 -5 5 -6 -1 -3 -15z"/>
<path d="M2200 1680 c0 -5 5 -10 11 -10 5 0 7 5 4 10 -3 6 -8 10 -11 10 -2 0
-4 -4 -4 -10z"/>
<path d="M2415 1670 c3 -5 8 -10 11 -10 2 0 4 5 4 10 0 6 -5 10 -11 10 -5 0
-7 -4 -4 -10z"/>
<path d="M2826 1672 c-3 -3 -1 -11 5 -19 6 -7 9 -13 5 -13 -4 0 0 -13 9 -30 9
-16 17 -30 20 -30 2 0 2 21 1 47 -3 33 -8 47 -19 49 -9 1 -18 0 -21 -4z"/>
<path d="M2940 1661 c0 -5 7 -11 15 -15 8 -3 15 -1 15 3 0 5 -7 11 -15 15 -8
3 -15 1 -15 -3z"/>
<path d="M2626 1652 c-3 -5 1 -9 9 -9 8 0 12 4 9 9 -3 4 -7 8 -9 8 -2 0 -6 -4
-9 -8z"/>
<path d="M3225 1650 c-4 -6 -10 -8 -14 -6 -4 3 -8 -1 -8 -9 0 -19 -1 -19 27 5
13 11 18 20 12 20 -6 0 -14 -5 -17 -10z"/>
<path d="M1346 1635 c-3 -8 -1 -15 4 -15 6 0 10 7 10 15 0 8 -2 15 -4 15 -2 0
-6 -7 -10 -15z"/>
<path d="M3490 1640 c-13 -8 -12 -10 3 -10 9 0 17 5 17 10 0 12 -1 12 -20 0z"/>
<path d="M3736 1633 c-10 -25 -7 -27 14 -8 19 18 20 17 20 -6 0 -19 2 -21 10
-9 6 9 6 18 0 24 -16 16 -38 15 -44 -1z"/>
<path d="M2200 1634 c0 -5 7 -18 15 -28 8 -11 15 -16 15 -10 0 5 -7 18 -15 28
-8 11 -15 16 -15 10z"/>
<path d="M2925 1629 c-4 -6 -5 -13 -2 -16 7 -7 27 6 27 18 0 12 -17 12 -25 -2z"/>
<path d="M2420 1626 c0 -2 8 -10 18 -17 15 -13 16 -12 3 4 -13 16 -21 21 -21
13z"/>
<path d="M2158 1604 c-5 -4 -8 -16 -8 -28 0 -14 3 -17 11 -9 6 6 9 19 7 28 -1
9 -6 13 -10 9z"/>
<path d="M2290 1595 c-10 -12 -9 -16 4 -21 9 -4 20 -3 24 1 4 4 1 10 -6 12 -6
3 -10 9 -6 14 9 14 -2 10 -16 -6z"/>
<path d="M1330 1590 c0 -5 5 -10 11 -10 5 0 7 5 4 10 -3 6 -8 10 -11 10 -2 0
-4 -4 -4 -10z"/>
<path d="M3719 1588 c-10 -47 -40 -93 -53 -80 -4 3 -4 0 -1 -9 3 -8 -3 -24
-14 -36 -11 -11 -17 -23 -14 -26 3 -3 -4 -18 -16 -33 -11 -15 -21 -31 -21 -37
0 -5 -9 -18 -21 -28 -11 -9 -24 -30 -28 -46 -4 -15 -14 -28 -22 -28 -8 0 -23
-10 -35 -22 -24 -26 -71 -46 -86 -37 -7 4 -8 2 -4 -4 10 -16 -56 -16 -72 0 -6
6 -22 13 -34 15 -21 3 -21 3 3 -18 39 -34 82 -53 115 -50 32 2 69 8 69 11 0 1
10 3 22 4 21 2 31 10 109 83 35 33 49 60 16 30 -16 -15 -19 -15 -19 -2 0 8 3
13 5 10 7 -6 45 55 49 78 2 10 11 27 22 38 10 11 17 29 14 39 -3 10 0 21 6 24
6 4 11 0 11 -8 0 -8 4 -17 9 -20 11 -7 8 8 -6 44 -13 31 2 40 23 14 14 -18 14
-18 5 3 -15 29 -14 33 5 26 12 -4 15 -2 12 8 -3 8 -12 13 -21 13 -9 -1 -14 2
-11 7 3 5 0 17 -5 26 -6 10 -11 15 -12 11z"/>
<path d="M2843 1555 c0 -8 4 -15 9 -15 4 0 8 4 8 9 0 6 -4 12 -8 15 -5 3 -9
-1 -9 -9z"/>
<path d="M2780 1550 c0 -6 7 -10 15 -10 8 0 15 2 15 4 0 2 -7 6 -15 10 -8 3
-15 1 -15 -4z"/>
<path d="M1100 1535 c0 -9 -6 -12 -17 -8 -11 4 -14 3 -9 -5 10 -16 -6 -15 -24
1 -8 6 -6 1 5 -13 11 -14 20 -26 21 -28 1 -1 13 13 28 33 21 27 23 35 12 35
-9 0 -16 -7 -16 -15z"/>
<path d="M2171 1528 c-1 -16 4 -28 9 -28 12 0 12 8 0 35 -8 18 -9 17 -9 -7z"/>
<path d="M2925 1540 c-3 -5 -1 -10 4 -10 6 0 11 5 11 10 0 6 -2 10 -4 10 -3 0
-8 -4 -11 -10z"/>
<path d="M2980 1537 c-31 -14 -42 -29 -30 -41 6 -6 19 1 35 18 14 15 25 29 25
32 0 5 0 5 -30 -9z"/>
<path d="M1310 1533 c0 -4 5 -15 10 -23 8 -13 10 -13 10 2 0 9 -4 20 -10 23
-5 3 -10 3 -10 -2z"/>
<path d="M1601 1523 c1 -4 1 -10 -1 -13 -1 -3 -3 -16 -6 -29 -2 -14 -10 -31
-16 -38 -9 -11 -9 -16 0 -22 8 -5 6 -12 -8 -23 -13 -12 -18 -26 -15 -48 3 -21
1 -28 -7 -24 -6 4 -8 3 -4 -4 3 -6 0 -16 -7 -24 -8 -7 -12 -19 -9 -26 2 -6 -1
-12 -6 -12 -6 0 -13 -18 -17 -40 -4 -22 -10 -40 -14 -40 -12 0 -29 -80 -18
-87 5 -3 7 -1 3 5 -3 5 -1 12 4 14 6 2 12 10 14 18 7 35 27 71 36 65 6 -4 7
-11 4 -17 -5 -7 -2 -8 5 -3 9 5 10 10 2 18 -6 6 -11 17 -11 25 0 12 3 12 18 1
13 -10 12 -8 -3 10 -11 14 -14 21 -7 17 9 -5 13 -3 11 5 -3 27 1 40 11 34 6
-4 8 -11 5 -16 -4 -5 -1 -9 4 -9 14 0 14 17 1 25 -12 8 -13 25 -1 44 8 12 12
12 25 2 9 -8 16 -9 16 -3 0 5 -7 12 -15 16 -23 8 -19 57 5 63 11 3 20 11 20
18 0 7 4 15 8 17 5 2 12 17 16 33 6 22 5 27 -4 19 -6 -6 -13 -18 -14 -25 -6
-28 -18 -49 -29 -49 -7 0 -7 4 1 12 7 7 12 27 12 46 0 22 4 31 11 26 7 -4 10
-1 7 6 -5 15 -30 27 -27 13z"/>
<path d="M2114 1518 c-12 -19 -12 -48 0 -48 6 0 6 -4 -1 -11 -8 -8 -8 -20 -3
-35 5 -13 7 -24 4 -24 -4 0 -1 -6 5 -13 6 -8 9 -16 7 -18 -3 -2 6 -9 19 -15
15 -8 23 -8 22 -2 -1 6 6 12 16 13 11 2 17 -3 17 -16 0 -10 5 -19 11 -19 8 0
7 -5 -1 -15 -7 -9 -10 -18 -6 -22 3 -3 6 -2 6 4 0 5 7 10 15 10 22 0 18 -25
-5 -32 -11 -3 -38 -6 -60 -7 -32 0 -40 -4 -40 -19 0 -10 8 -28 17 -39 34 -39
152 -19 127 22 -12 19 -11 91 1 107 7 11 7 13 -2 8 -7 -5 -10 -1 -9 10 2 10 7
19 12 19 24 4 54 17 54 24 0 8 -65 -12 -76 -23 -13 -12 -36 -7 -31 6 3 8 1 20
-4 28 -7 11 -9 11 -9 -2 0 -19 -33 -36 -38 -20 -2 6 -10 11 -18 11 -8 0 -14 7
-14 16 0 14 2 15 17 3 13 -11 17 -11 20 -1 3 6 10 9 15 6 7 -4 8 -2 4 5 -4 6
-12 9 -17 6 -5 -4 -18 -4 -28 0 -15 4 -18 14 -16 50 2 48 1 52 -11 33z m76
-282 c0 -11 -19 -15 -25 -6 -3 5 1 10 9 10 9 0 16 -2 16 -4z"/>
<path d="M2380 1516 c0 -9 5 -16 10 -16 6 0 10 4 10 9 0 6 -4 13 -10 16 -5 3
-10 -1 -10 -9z"/>
<path d="M2712 1518 c-5 -7 -12 -24 -14 -37 -2 -15 -10 -25 -23 -27 -62 -8
-87 -26 -67 -46 18 -18 14 -36 -9 -43 -31 -10 -46 9 -29 40 7 14 10 28 7 32
-4 3 -7 1 -7 -5 0 -7 -10 -12 -22 -12 -13 0 -32 -7 -42 -15 -17 -13 -16 -18 4
-17 3 0 6 -10 6 -22 2 -29 -53 -65 -63 -41 -3 9 -3 24 0 35 3 11 0 23 -6 27
-16 10 -55 15 -42 6 12 -9 19 -56 7 -49 -4 2 -14 1 -22 -5 -12 -7 -12 -9 -1
-9 9 0 11 -7 8 -21 -7 -25 18 -37 45 -20 10 6 23 9 27 6 5 -2 14 2 21 10 19
23 33 18 28 -10 -4 -20 -3 -23 8 -14 8 6 12 15 9 19 -6 10 20 32 28 23 4 -3 7
-1 7 5 0 7 8 12 18 12 10 0 22 3 26 8 4 4 12 8 17 8 5 1 13 2 18 3 4 0 7 13 5
29 -4 36 5 50 40 56 21 4 26 2 18 -6 -6 -6 -8 -16 -6 -23 3 -7 -6 -15 -20 -19
-30 -7 -34 -21 -10 -30 10 -4 22 1 31 11 8 10 11 12 7 4 -5 -9 -3 -12 5 -7 6
4 9 12 6 17 -4 5 -2 9 2 9 5 0 14 -9 21 -21 11 -17 16 -18 28 -8 13 10 17 10
25 -2 8 -11 9 -10 7 6 -2 11 -8 20 -13 21 -29 2 -65 26 -65 42 0 10 -6 24 -12
31 -11 11 -9 11 9 2 13 -6 24 -7 27 -2 9 14 -5 41 -21 41 -8 0 -11 5 -8 10 9
14 -1 12 -13 -2z"/>
<path d="M2813 1517 c-18 -6 -33 -17 -33 -25 0 -7 5 -10 10 -7 6 3 10 0 11 -7
0 -7 2 -24 5 -37 3 -17 1 -22 -11 -18 -8 4 -17 2 -20 -3 -4 -6 0 -10 8 -10 7
0 23 -11 34 -24 27 -31 69 -26 52 6 -6 11 -11 47 -11 79 -1 33 -4 58 -7 58 -3
-1 -21 -7 -38 -12z m33 -55 c-1 -16 -6 -29 -11 -29 -6 0 -10 12 -9 26 2 31 2
31 13 31 4 0 8 -13 7 -28z"/>
<path d="M1096 1481 c-20 -21 -24 -31 -15 -36 7 -5 10 -4 5 3 -14 23 12 20 34
-3 18 -19 26 -22 37 -14 21 18 16 42 -7 36 -11 -3 -18 -2 -16 1 2 4 1 15 -3
25 -6 16 -10 15 -35 -12z m28 -12 c-3 -5 -10 -7 -15 -3 -5 3 -7 10 -3 15 3 5
10 7 15 3 5 -3 7 -10 3 -15z"/>
<path d="M3048 1487 c-32 -13 -38 -24 -27 -54 8 -22 29 -32 29 -15 0 5 7 9 15
9 8 0 15 -6 15 -14 0 -7 -6 -13 -14 -13 -23 0 -39 -27 -27 -47 9 -16 10 -14
11 10 0 16 4 26 9 22 5 -3 20 9 32 27 13 18 29 39 37 47 12 12 9 16 -18 28
-18 7 -33 13 -34 12 0 -1 -13 -6 -28 -12z"/>
<path d="M2180 1473 c0 -5 5 -15 10 -23 8 -12 10 -11 10 8 0 12 -4 22 -10 22
-5 0 -10 -3 -10 -7z"/>
<path d="M960 1461 c0 -5 -3 -17 -7 -27 -6 -16 -4 -16 19 2 14 10 24 22 21 27
-6 10 -33 9 -33 -2z"/>
<path d="M2325 1460 c3 -5 8 -10 11 -10 2 0 4 5 4 10 0 6 -5 10 -11 10 -5 0
-7 -4 -4 -10z"/>
<path d="M2880 1456 c0 -8 4 -17 9 -20 5 -4 7 3 4 14 -6 23 -13 26 -13 6z"/>
<path d="M2929 1453 c-13 -16 -12 -17 4 -4 16 13 21 21 13 21 -2 0 -10 -8 -17
-17z"/>
<path d="M2354 1432 c1 -16 -7 -34 -19 -44 -17 -15 -18 -19 -5 -28 13 -9 13
-10 0 -10 -8 -1 -4 -6 9 -11 19 -8 21 -12 11 -24 -9 -10 -9 -15 -1 -15 6 0 11
3 12 8 0 4 2 15 4 25 2 9 0 15 -5 12 -4 -3 -10 4 -13 15 -3 10 -1 20 4 22 12
4 21 66 10 72 -4 3 -8 -7 -7 -22z"/>
<path d="M2300 1440 c-13 -8 -12 -10 3 -10 9 0 17 5 17 10 0 12 -1 12 -20 0z"/>
<path d="M3140 1440 c0 -5 7 -10 15 -10 8 0 15 5 15 10 0 6 -7 10 -15 10 -8 0
-15 -4 -15 -10z"/>
<path d="M1470 1423 c0 -7 0 -16 1 -19 0 -4 -5 -11 -13 -15 -8 -5 -9 -9 -2 -9
13 0 28 17 36 41 4 9 1 16 -8 16 -8 0 -14 -6 -14 -14z"/>
<path d="M2385 1431 c-2 -5 4 -11 15 -14 11 -3 20 -2 20 3 0 12 -28 21 -35 11z"/>
<path d="M2880 1410 c0 -16 17 -20 28 -7 8 10 6 13 -9 14 -10 1 -19 -2 -19 -7z"/>
<path d="M935 1400 c-3 -5 -1 -10 4 -10 6 0 11 5 11 10 0 6 -2 10 -4 10 -3 0
-8 -4 -11 -10z"/>
<path d="M2980 1393 c0 -9 3 -13 7 -10 3 4 13 1 22 -5 10 -8 9 -4 -3 10 -23
26 -26 27 -26 5z"/>
<path d="M3170 1390 c0 -5 5 -10 10 -10 6 0 10 5 10 10 0 6 -4 10 -10 10 -5 0
-10 -4 -10 -10z"/>
<path d="M919 1364 c-1 -5 -1 -13 0 -18 3 -16 -21 -66 -29 -61 -5 3 -6 -5 -2
-17 l5 -22 8 22 c5 12 13 22 20 22 6 0 9 6 6 13 -2 6 2 19 10 28 12 14 11 18
-2 29 -8 7 -16 9 -16 4z"/>
<path d="M2280 1360 c0 -5 5 -10 10 -10 6 0 10 5 10 10 0 6 -4 10 -10 10 -5 0
-10 -4 -10 -10z"/>
<path d="M2700 1350 c0 -5 5 -10 10 -10 6 0 10 5 10 10 0 6 -4 10 -10 10 -5 0
-10 -4 -10 -10z"/>
<path d="M2890 1350 c0 -5 5 -10 11 -10 5 0 7 5 4 10 -3 6 -8 10 -11 10 -2 0
-4 -4 -4 -10z"/>
<path d="M3175 1350 c3 -5 8 -10 11 -10 2 0 4 5 4 10 0 6 -5 10 -11 10 -5 0
-7 -4 -4 -10z"/>
<path d="M3200 1349 c0 -5 5 -7 10 -4 6 3 10 8 10 11 0 2 -4 4 -10 4 -5 0 -10
-5 -10 -11z"/>
<path d="M2071 1332 c-7 -14 -6 -19 4 -19 7 0 13 9 12 19 -1 10 -2 18 -4 18
-1 0 -7 -8 -12 -18z"/>
<path d="M2759 1345 c-1 -3 -2 -11 -3 -17 0 -7 -7 -13 -13 -13 -7 0 -13 -3
-13 -7 0 -5 0 -15 0 -24 0 -10 5 -12 13 -7 16 10 36 15 68 17 20 1 26 7 27 29
2 29 -10 35 -30 14 -13 -15 -51 -11 -42 4 3 5 3 9 0 9 -3 0 -7 -2 -7 -5z"/>
<path d="M2120 1329 c0 -5 5 -7 10 -4 6 3 10 8 10 11 0 2 -4 4 -10 4 -5 0 -10
-5 -10 -11z"/>
<path d="M2656 1328 c5 -8 -10 -12 -35 -8 -12 1 -13 -1 -2 -13 11 -14 15 -13
37 5 28 25 28 25 9 25 -8 0 -12 -4 -9 -9z"/>
<path d="M2176 1315 c4 -8 8 -15 10 -15 2 0 4 7 4 15 0 8 -4 15 -10 15 -5 0
-7 -7 -4 -15z"/>
<path d="M2155 1301 c-3 -5 -2 -12 3 -15 5 -3 9 1 9 9 0 17 -3 19 -12 6z"/>
<path d="M2570 1302 c0 -5 7 -9 15 -9 8 0 12 4 9 9 -3 4 -9 8 -15 8 -5 0 -9
-4 -9 -8z"/>
<path d="M3155 1300 c-3 -5 -1 -10 4 -10 6 0 11 5 11 10 0 6 -2 10 -4 10 -3 0
-8 -4 -11 -10z"/>
<path d="M2274 1285 c3 -23 12 -26 13 -5 1 11 -2 20 -7 20 -4 0 -7 -7 -6 -15z"/>
<path d="M2680 1289 c0 -5 -4 -7 -10 -4 -5 3 -10 1 -10 -6 0 -6 -8 -9 -20 -6
-11 3 -18 2 -15 -3 6 -10 -23 -35 -32 -26 -3 3 -1 6 5 6 7 0 12 4 12 9 0 14
-46 0 -57 -18 -6 -10 -8 -24 -3 -31 6 -10 17 -8 52 9 24 11 52 21 61 21 18 0
49 39 41 52 -7 12 -24 10 -24 -3z"/>
<path d="M3110 1291 c0 -6 4 -12 8 -15 5 -3 9 1 9 9 0 8 -4 15 -9 15 -4 0 -8
-4 -8 -9z"/>
<path d="M1170 1261 c0 -7 -5 -9 -12 -5 -7 5 -8 3 -3 -5 5 -9 10 -10 18 -2 6
6 8 14 4 18 -4 3 -7 1 -7 -6z"/>
<path d="M2477 1263 c-4 -6 -3 -14 3 -18 15 -9 2 -25 -21 -25 -10 0 -19 -4
-19 -10 0 -21 -28 -9 -34 15 -7 29 -18 31 -40 10 -8 -8 -19 -15 -25 -15 -5 0
-13 -4 -16 -10 -3 -6 1 -7 9 -4 11 4 16 0 16 -14 0 -34 36 -49 80 -32 3 2 8 2
13 1 4 0 7 4 7 10 0 6 9 8 20 4 11 -3 20 -2 20 3 0 5 9 12 20 15 26 7 26 34 1
42 -11 3 -21 14 -23 23 -2 12 -6 13 -11 5z m-47 -82 c0 -6 -4 -13 -10 -16 -5
-3 -10 1 -10 9 0 9 5 16 10 16 6 0 10 -4 10 -9z"/>
<path d="M2925 1261 c-3 -6 3 -9 14 -8 11 0 17 5 15 9 -7 11 -22 10 -29 -1z"/>
<path d="M3190 1261 c0 -6 5 -13 10 -16 6 -3 10 1 10 9 0 9 -4 16 -10 16 -5 0
-10 -4 -10 -9z"/>
<path d="M2286 1232 c-2 -4 4 -9 15 -9 10 -1 19 2 19 8 0 11 -27 12 -34 1z"/>
<path d="M3016 1221 c-2 -3 6 -11 18 -17 17 -8 23 -7 23 2 0 14 -34 26 -41 15z"/>
<path d="M1660 1180 c0 -19 20 -27 33 -13 8 7 -11 33 -24 33 -5 0 -9 -9 -9
-20z"/>
<path d="M3677 1183 c-4 -3 -7 -11 -7 -17 0 -6 5 -5 12 2 6 6 9 14 7 17 -3 3
-9 2 -12 -2z"/>
<path d="M1155 1160 c-4 -6 -11 -7 -17 -4 -7 4 -8 2 -4 -5 6 -9 11 -9 22 0 14
11 18 19 10 19 -3 0 -8 -5 -11 -10z"/>
<path d="M3180 1151 c0 -10 19 -25 25 -20 1 2 -3 10 -11 17 -8 7 -14 8 -14 3z"/>
<path d="M1511 1123 c-10 -11 -10 -17 -2 -24 6 -5 9 -6 6 -3 -3 4 0 13 7 21
15 19 6 24 -11 6z"/>
<path d="M880 1122 c0 -5 7 -9 15 -9 8 0 12 4 9 9 -3 4 -9 8 -15 8 -5 0 -9 -4
-9 -8z"/>
<path d="M1116 1115 c4 -8 8 -15 10 -15 2 0 4 7 4 15 0 8 -4 15 -10 15 -5 0
-7 -7 -4 -15z"/>
<path d="M877 1086 c-4 -10 -1 -13 9 -9 7 3 14 9 14 14 0 14 -17 10 -23 -5z"/>
<path d="M1200 1065 c0 -8 4 -15 10 -15 5 0 7 7 4 15 -4 8 -8 15 -10 15 -2 0
-4 -7 -4 -15z"/>
<path d="M3565 1069 c-4 -6 -5 -12 -2 -15 2 -3 7 2 10 11 7 17 1 20 -8 4z"/>
<path d="M873 1045 c-7 -8 -13 -25 -13 -39 0 -14 -4 -36 -10 -50 -7 -21 -6
-26 5 -26 8 0 18 0 23 0 4 0 8 29 9 65 0 36 0 65 0 65 -1 -1 -8 -7 -14 -15z"/>
<path d="M3527 1049 c7 -7 15 -10 18 -7 3 3 -2 9 -12 12 -14 6 -15 5 -6 -5z"/>
<path d="M1252 1036 c9 -10 30 -20 47 -21 37 -3 38 -2 6 19 -14 9 -25 13 -24
9 4 -22 -3 -24 -23 -7 -22 18 -22 18 -6 0z"/>
<path d="M3500 1030 c0 -5 5 -10 10 -10 6 0 10 5 10 10 0 6 -4 10 -10 10 -5 0
-10 -4 -10 -10z"/>
<path d="M1435 1020 c-3 -5 1 -10 10 -10 9 0 13 5 10 10 -3 6 -8 10 -10 10 -2
0 -7 -4 -10 -10z"/>
<path d="M1360 984 c0 -11 35 -12 46 -1 4 4 13 2 19 -3 9 -7 16 -6 24 4 10 12
4 14 -39 12 -28 0 -50 -6 -50 -12z"/>
<path d="M1485 989 c-9 -14 -2 -20 14 -10 8 6 9 11 3 15 -6 3 -14 1 -17 -5z"/>
<path d="M1564 988 c-3 -5 -10 -5 -16 -2 -6 4 -8 3 -5 -3 7 -12 164 -10 175 2
4 4 -5 5 -20 3 -16 -3 -28 -2 -28 1 0 10 -100 9 -106 -1z"/>
<path d="M846 904 c-4 -9 -1 -23 5 -30 8 -10 8 -14 0 -14 -6 0 -11 -5 -11 -11
0 -5 5 -7 10 -4 13 8 13 -1 0 -26 -9 -15 -7 -21 5 -25 8 -3 15 -10 15 -15 0
-4 -7 -6 -15 -3 -20 8 -19 -3 3 -26 10 -11 19 -36 20 -56 2 -20 10 -43 18 -52
9 -8 13 -24 10 -35 -3 -11 0 -29 5 -39 8 -15 13 -17 24 -8 8 7 19 9 25 5 7 -4
6 2 -2 14 -7 12 -16 21 -19 21 -6 0 -11 11 -26 60 -2 8 -5 27 -5 42 -1 15 -5
25 -9 22 -4 -2 -8 29 -8 68 0 92 -4 108 -23 119 -11 6 -18 4 -22 -7z"/>
<path d="M1465 880 c-3 -5 -2 -10 4 -10 5 0 13 5 16 10 3 6 2 10 -4 10 -5 0
-13 -4 -16 -10z"/>
<path d="M3035 850 c3 -5 10 -10 16 -10 5 0 9 5 9 10 0 6 -7 10 -16 10 -8 0
-12 -4 -9 -10z"/>
<path d="M1475 840 c-3 -5 1 -10 10 -10 9 0 13 5 10 10 -3 6 -8 10 -10 10 -2
0 -7 -4 -10 -10z"/>
<path d="M1523 843 c4 -3 2 -12 -4 -19 -7 -8 -6 -14 2 -20 8 -4 9 -3 5 4 -4 7
-1 12 8 12 9 0 16 7 16 15 0 8 -7 15 -17 15 -9 0 -13 -3 -10 -7z"/>
<path d="M690 800 c0 -5 5 -10 11 -10 5 0 7 5 4 10 -3 6 -8 10 -11 10 -2 0 -4
-4 -4 -10z"/>
<path d="M720 756 c0 -9 5 -16 10 -16 6 0 10 4 10 9 0 6 -4 13 -10 16 -5 3
-10 -1 -10 -9z"/>
<path d="M1517 745 c-4 -8 -2 -17 2 -20 5 -2 11 4 14 15 6 23 -8 27 -16 5z"/>
<path d="M1715 579 c4 -10 2 -20 -4 -24 -6 -3 -11 -11 -11 -18 0 -6 7 -1 16
12 13 17 14 25 5 34 -9 9 -11 8 -6 -4z"/>
<path d="M930 535 c-11 -13 -10 -14 4 -9 9 3 16 10 16 15 0 13 -6 11 -20 -6z"/>
<path d="M1680 500 c0 -11 2 -20 4 -20 2 0 6 9 9 20 3 11 1 20 -4 20 -5 0 -9
-9 -9 -20z"/>
<path d="M1641 449 c-13 -17 -21 -33 -18 -35 3 -3 15 9 27 26 29 41 20 49 -9
9z"/>
<path d="M807 458 c-12 -9 -14 -17 -7 -28 8 -13 10 -12 10 3 0 10 4 16 8 13 5
-3 9 1 9 9 0 18 1 18 -20 3z"/>
<path d="M815 401 c-3 -5 -1 -12 4 -15 5 -3 11 1 15 9 6 16 -9 21 -19 6z"/>
<path d="M1544 359 c-3 -6 -1 -16 6 -22 10 -9 12 -8 7 5 -3 9 -1 19 6 22 9 3
9 5 0 5 -6 1 -15 -4 -19 -10z"/>
<path d="M884 288 c-4 -5 3 -12 15 -15 24 -6 28 -23 6 -23 -8 0 -15 5 -15 10
0 24 -48 -6 -50 -31 0 -16 39 -15 61 2 31 24 34 24 47 -6 6 -14 15 -25 19 -24
37 6 45 -17 11 -31 -20 -8 -18 -9 10 -6 20 3 38 -1 47 -11 8 -8 15 -11 15 -6
0 4 5 1 10 -7 5 -8 10 -10 10 -3 0 14 23 11 43 -5 11 -10 17 -9 28 5 9 11 10
14 2 9 -7 -4 -13 -2 -13 3 0 6 -7 11 -15 11 -9 0 -18 7 -21 15 -5 13 -36 29
-59 30 -16 1 -85 59 -85 71 0 14 -59 24 -66 12z"/>
<path d="M1185 140 c3 -6 -3 -10 -14 -10 -14 0 -19 -5 -15 -14 3 -8 12 -12 20
-9 21 8 104 9 104 1 0 -4 9 -5 20 -3 11 2 18 0 15 -5 -9 -15 15 -22 30 -10 8
7 15 9 15 6 0 -4 9 -2 20 4 36 19 14 26 -79 25 -50 0 -91 3 -91 6 0 4 -7 10
-16 13 -8 3 -12 2 -9 -4z"/>
<path d="M1280 75 c0 -7 7 -12 15 -11 22 3 23 19 3 22 -10 1 -18 -4 -18 -11z"/>
</g>
</svg>
